<?xml version="1.0" encoding="UTF-8"?>
<svg version="1.1" xmlns="http://www.w3.org/2000/svg" width="853" height="1280">
<path d="M0 0 C2.25390625 1.1015625 2.25390625 1.1015625 4.5625 2.625 C10.17565349 6.18084384 16.02503939 9.10491599 22 12 C22 12.66 22 13.32 22 14 C22.763125 14.20625 23.52625 14.4125 24.3125 14.625 C29.49898594 16.55894391 34.19033084 19.2785146 39 22 C39 22.66 39 23.32 39 24 C39.82371094 24.15855469 39.82371094 24.15855469 40.6640625 24.3203125 C43.49919757 25.14525147 45.8027679 26.42676848 48.375 27.875 C52.21220532 30.01191756 56.05103945 32.07888406 60 34 C60 34.66 60 35.32 60 36 C60.763125 36.20625 61.52625 36.4125 62.3125 36.625 C67.49898594 38.55894391 72.19033084 41.2785146 77 44 C77 44.66 77 45.32 77 46 C77.83917969 46.2475 78.67835938 46.495 79.54296875 46.75 C83.37684478 48.13626026 86.79653645 49.96861276 90.3125 52 C91.00400146 52.39445312 91.69550293 52.78890625 92.40795898 53.1953125 C102.91160711 59.20752554 113.32168947 65.37877889 123.6875 71.625 C129.47894004 75.11363695 135.32365609 78.49714407 141.203125 81.8359375 C146.47066674 84.83026738 151.70655955 87.87938657 156.94750977 90.91992188 C161.84826372 93.76082381 166.76185809 96.57752176 171.6875 99.375 C175.86768911 101.75538547 179.96962497 104.20933508 184.0234375 106.796875 C186.40755167 108.24807493 188.85178364 109.55799688 191.3125 110.875 C196.12578188 113.46522659 200.72212004 116.30003549 205.296875 119.2890625 C208.47279846 121.29925683 211.72773937 123.15332329 215 125 C216.57587891 125.90298828 216.57587891 125.90298828 218.18359375 126.82421875 C227.09700487 131.92829691 236.0421811 136.97431459 245 142 C245 142.66 245 143.32 245 144 C245.680625 144.0825 246.36125 144.165 247.0625 144.25 C249.98242395 144.9955125 252.22531975 146.07740666 254.77173167 147.67193222 C257.11394175 149.11453852 257.11394175 149.11453852 260.17941493 150.51511002 C269.26006316 155.21241044 269.26006316 155.21241044 271.19881213 159.89617157 C271.64295266 163.47129046 271.67181617 166.85074143 271.56330872 170.45214844 C271.56898389 171.81614654 271.58037804 173.18013071 271.59696788 174.54403973 C271.62595474 178.2789139 271.57418705 182.00891555 271.50885308 185.74316859 C271.45259261 189.77441607 271.47171885 193.80539957 271.48158264 197.83692932 C271.48839218 204.81704605 271.4476863 211.79558042 271.37449074 218.77529907 C271.26873492 228.86645142 271.23497214 238.95684039 271.21864685 249.04848683 C271.19021024 265.42191825 271.10374041 281.79450666 270.98071289 298.16748047 C270.86134402 314.07010689 270.76934557 329.97250416 270.71411133 345.87548828 C270.71069592 346.85610804 270.70728052 347.8367278 270.70376161 348.8470633 C270.68679585 353.76665623 270.67036771 358.68625078 270.65420687 363.60584641 C270.51948827 404.40448398 270.29056141 445.20219371 270 486 C264.70856366 486.14144081 262.14820037 485.99444029 257.9375 482.6875 C254.41317242 479.96285777 250.99914489 477.9605564 247 476 C244.24626593 474.43714667 241.53109549 472.81053297 238.8125 471.1875 C233.00596995 467.74126151 227.15720464 464.42020879 221.20703125 461.2265625 C218.36049596 459.64459421 215.70898388 457.80598926 213 456 C211.27716694 455.05091103 209.5471699 454.11477771 207.8125 453.1875 C203.94231355 451.11119727 200.23680723 448.90529072 196.5625 446.5 C192.76637592 444.03603929 188.94622257 441.91377154 184.875 439.9375 C179.59408004 437.36895916 174.73526934 434.47192493 170 431 C169.14593158 430.47440742 168.29186316 429.94881485 167.41191387 429.40729523 C164.65756655 426.65822228 164.40453773 425.11747245 164.33774453 421.29387331 C164.35580078 420.15399501 164.35580078 420.15399501 164.3742218 418.99108887 C164.36727726 418.17786651 164.36033271 417.36464416 164.35317773 416.5267787 C164.33589479 413.79797797 164.35423413 411.07057549 164.37231445 408.34179688 C164.36713731 406.3871238 164.35973861 404.43245552 164.35028076 402.47779846 C164.33469925 398.26685367 164.3349022 394.05630684 164.34728432 389.84535217 C164.36678839 383.19003069 164.35165129 376.5350646 164.33183289 369.87976074 C164.30466377 359.35545341 164.3011958 348.83129034 164.30760592 338.30695486 C164.31854019 319.45501751 164.29400076 300.60312358 164.25385827 281.75123072 C164.24076307 275.13223563 164.23954259 268.51337258 164.2479912 261.89437103 C164.25160976 257.78061614 164.24732327 253.66689513 164.2411499 249.55314445 C164.24006217 247.642327 164.24243902 245.73150404 164.2484951 243.82069588 C164.25635339 241.21666885 164.25207867 238.61293337 164.24482727 236.00891113 C164.2501726 235.24899227 164.25551794 234.4890734 164.26102525 233.70612669 C164.2377764 229.9991851 164.18428892 227.08171971 162 224 C159.33911165 221.9728598 159.33911165 221.9728598 156.125 220.125 C155.54709717 219.77767822 154.96919434 219.43035645 154.3737793 219.07250977 C150.60386621 216.84056095 146.75781237 214.84619198 142.8125 212.9375 C137.99976864 210.60692537 133.81593968 207.86668528 129.5 204.7265625 C125.21406611 201.76658941 120.60449877 199.42092203 116 197 C110.04354841 193.80508434 104.33177975 190.35206911 98.67578125 186.6484375 C96.02280624 184.95899537 96.02280624 184.95899537 93.1875 183.59765625 C88.48675181 181.24152143 84.03422644 178.48676437 79.54101562 175.75976562 C78.83009766 175.33501953 78.11917969 174.91027344 77.38671875 174.47265625 C76.75983154 174.09375244 76.13294434 173.71484863 75.48706055 173.32446289 C73.13987844 172.07449107 70.77661632 170.99046979 68.34455872 169.91722107 C67.53168805 169.55792228 66.71881739 169.19862349 65.88131428 168.82843685 C65.26048057 168.55505269 64.63964685 168.28166853 64 168 C64.00075944 168.94008762 64.00151888 169.88017523 64.00230134 170.84875035 C64.04709945 226.52144564 64.0813554 282.19413927 64.10213066 337.86684896 C64.10463218 344.54616106 64.10721849 351.22547312 64.10986328 357.90478516 C64.1101248 358.56946712 64.11038632 359.23414908 64.11065576 359.91897292 C64.1191828 381.4743246 64.13420867 403.02966582 64.15259444 424.58501116 C64.17198359 447.35800019 64.18398935 470.13098382 64.18817699 492.90398097 C64.19092615 506.55126885 64.19962035 520.19852668 64.21583293 533.84580532 C64.22637549 543.19439077 64.22960684 552.54296061 64.22700275 561.89155158 C64.2257172 567.29142828 64.22773753 572.69125234 64.23841095 578.09111977 C64.24810135 583.0295191 64.24866246 587.96783011 64.24179779 592.9062334 C64.24094862 594.69768076 64.24352126 596.4891335 64.24976636 598.28057018 C64.25773519 600.70651595 64.25350141 603.13213847 64.24609566 605.55807877 C64.2539767 606.61321727 64.2539767 606.61321727 64.26201695 607.6896717 C64.23695345 611.29680491 63.96947786 613.92986631 62 617 C61.34 617 60.68 617 60 617 C60 617.66 60 618.32 60 619 C58.86046875 619.55945313 57.7209375 620.11890625 56.546875 620.6953125 C52.03446337 622.95151832 47.64337536 625.39703929 43.25 627.875 C37.10358645 631.31883368 30.91526916 634.60462434 24.58984375 637.7109375 C18.53417222 640.72507265 12.71606634 644.15641913 6.875 647.5625 C5.86050781 648.15160156 4.84601563 648.74070312 3.80078125 649.34765625 C2.13668758 650.32940189 0.48331055 651.33034244 -1.14453125 652.37109375 C-5.41253785 655.05835717 -5.41253785 655.05835717 -8.359375 654.765625 C-11.28541821 653.91724561 -13.65677401 652.74120359 -16.3125 651.25 C-17.2715625 650.71246094 -18.230625 650.17492187 -19.21875 649.62109375 C-22.27285624 647.8409616 -25.26470389 645.98275014 -28.2421875 644.078125 C-30.15592885 642.86609332 -30.15592885 642.86609332 -32.9375 641.5625 C-35.53146826 640.23904681 -37.74157813 638.83920708 -40.125 637.1875 C-43.55560229 634.8526252 -47.01540673 632.93317379 -50.75 631.125 C-56.39572168 628.38484719 -61.66096186 625.20980932 -66.97265625 621.875 C-69.49176489 620.31477787 -72.02104572 618.84855544 -74.625 617.4375 C-77.86792428 615.672364 -80.96581088 613.76077733 -84.0625 611.75 C-89.15632887 608.46982925 -94.37824651 605.49366412 -99.66967773 602.55004883 C-105.42078356 599.34479104 -111.09779845 596.02459198 -116.76391602 592.671875 C-121.33978297 589.96744942 -125.939134 587.30981051 -130.5625 584.6875 C-134.15071843 582.64818224 -137.70756761 580.59398523 -141.1875 578.375 C-145.08552006 575.88990832 -149.13977058 573.72867201 -153.20703125 571.53515625 C-157.54807398 569.14910059 -161.76963406 566.57558557 -166 564 C-167.72825393 562.9568197 -169.45741545 561.91514146 -171.1875 560.875 C-172.32251953 560.19050781 -172.32251953 560.19050781 -173.48046875 559.4921875 C-175.53000374 558.27835437 -177.58856316 557.08694191 -179.6574707 555.90673828 C-180.76050537 555.27751465 -181.86354004 554.64829102 -183 554 C-183.00173625 554.69962652 -183.0034725 555.39925303 -183.00526136 556.12008035 C-183.10819514 597.54680299 -183.21628715 638.97350935 -183.33111694 680.40020081 C-183.34488722 685.36966502 -183.35861421 690.33912935 -183.37231445 695.30859375 C-183.37504276 696.29796262 -183.37777106 697.28733149 -183.38058204 698.30668123 C-183.42470782 714.34554248 -183.46532393 730.38441081 -183.50465261 746.42328446 C-183.5450579 762.86950545 -183.58921252 779.31571327 -183.63687855 795.76191485 C-183.66619345 805.91752386 -183.69255194 816.07313184 -183.71517897 826.22875799 C-183.73095561 833.18424939 -183.75036015 840.13972464 -183.77266841 847.09519814 C-183.78544781 851.11357386 -183.79657901 855.13193709 -183.80341911 859.15032768 C-183.80970785 862.82416077 -183.82051899 866.49795086 -183.8350333 870.1717604 C-183.84160546 872.14067742 -183.84324347 874.10960897 -183.84474558 876.07853639 C-183.85022002 877.23552242 -183.85569446 878.39250846 -183.8613348 879.58455467 C-183.86399284 880.58929467 -183.86665089 881.59403466 -183.86938947 882.62922132 C-184 885 -184 885 -185 887 C-191.87209778 886.70121314 -196.31513665 883.66187144 -202 880 C-208.0001186 876.31853922 -214.07826358 872.84580993 -220.2734375 869.50390625 C-223.76097612 867.58026389 -227.15881812 865.52433162 -230.5625 863.45703125 C-234.32237946 861.2095392 -238.15556058 859.09865534 -242 857 C-242 856.34 -242 855.68 -242 855 C-242.56074219 854.8865625 -243.12148437 854.773125 -243.69921875 854.65625 C-251.66351414 852.38460038 -259.01152946 846.82919062 -266.0703125 842.54467773 C-271.6041569 839.19920448 -277.22820355 836.02905684 -282.8972168 832.91870117 C-285.55358093 831.44823184 -287.84119298 830.15880702 -290 828 C-290.251233 825.98736153 -290.251233 825.98736153 -290.25299966 823.45373404 C-290.25851915 822.48844141 -290.26403864 821.52314878 -290.26972538 820.52860487 C-290.26561475 819.45848649 -290.26150411 818.38836812 -290.25726891 817.28582191 C-290.26077498 816.15181387 -290.26428105 815.01780582 -290.26789337 813.8494339 C-290.27563879 810.6782623 -290.27433437 807.50723766 -290.26933783 804.33606507 C-290.26608571 800.89496684 -290.27434158 797.45389377 -290.28115618 794.01280344 C-290.29148977 787.97403445 -290.29429418 781.93529756 -290.29224396 775.89652061 C-290.28920265 766.9167914 -290.29749855 757.93709787 -290.30799321 748.95737557 C-290.32736925 731.98900364 -290.33296277 715.02064377 -290.33410732 698.05226208 C-290.3350252 684.95213029 -290.33913553 671.85200326 -290.34550858 658.75187302 C-290.34730357 654.98571249 -290.34908319 651.21955196 -290.35085833 647.45339143 C-290.35130043 646.51720453 -290.35174252 645.58101762 -290.35219802 644.61646142 C-290.36451225 618.27110059 -290.37239855 591.92574141 -290.37151146 565.58037758 C-290.3714803 564.58641125 -290.37144914 563.59244492 -290.37141704 562.5683584 C-290.37125082 557.53012734 -290.37105274 552.49189627 -290.37084763 547.45366521 C-290.37080774 546.45299216 -290.37076785 545.45231912 -290.37072675 544.42132265 C-290.37064587 542.39771666 -290.37056228 540.37411068 -290.37047596 538.35050469 C-290.36925014 506.85832582 -290.38426709 475.36618999 -290.41162109 443.87402344 C-290.44231538 408.52138633 -290.4595552 373.16877751 -290.45769465 337.81612623 C-290.45754538 334.04933699 -290.45744797 330.28254775 -290.45738602 326.51575851 C-290.45736271 325.58822723 -290.4573394 324.66069595 -290.45731538 323.70505767 C-290.45725373 308.75236504 -290.47004751 293.79970965 -290.48725055 278.8470281 C-290.50417111 263.82968497 -290.50620902 248.81239657 -290.4930319 233.79504921 C-290.48561878 224.86424339 -290.48937077 215.93360339 -290.50891658 207.002815 C-290.5208587 201.04475466 -290.51839031 195.08681524 -290.50397559 189.1287606 C-290.49616335 185.7290132 -290.49480049 182.32958817 -290.51089029 178.92986269 C-290.52486293 175.27489311 -290.51454167 171.62079862 -290.49777794 167.96586037 C-290.5077143 166.90042433 -290.51765066 165.83498828 -290.52788812 164.7372663 C-290.45842123 157.64335263 -290.45842123 157.64335263 -288.16273654 154.42156732 C-285.32949307 152.55927561 -282.44180837 151.07340395 -279.375 149.625 C-275.0867333 147.56079293 -270.92809673 145.44436665 -266.875 142.9375 C-263.37192899 140.77383849 -259.82324634 138.87329937 -256.125 137.0625 C-250.91968343 134.50982875 -245.93839854 131.68639665 -240.953125 128.73046875 C-237.16284391 126.50944425 -233.30830279 124.41920236 -229.4453125 122.328125 C-226.26749804 120.60215548 -223.12644156 118.81680279 -220 117 C-219.17628906 116.52175781 -218.35257812 116.04351562 -217.50390625 115.55078125 C-216.55386719 114.99777344 -215.60382813 114.44476563 -214.625 113.875 C-213.6040625 113.28332031 -212.583125 112.69164062 -211.53125 112.08203125 C-208.88184613 110.53424583 -206.26663099 108.93688201 -203.65625 107.32421875 C-202.90649902 106.86740723 -202.15674805 106.4105957 -201.38427734 105.93994141 C-199.9040999 105.03750342 -198.43015261 104.12474771 -196.96337891 103.20068359 C-192.83772664 100.70360376 -189.98067608 99.32220157 -185 100 C-184 101 -184 101 -183.87810284 103.14234507 C-183.8795667 104.09810384 -183.88103057 105.0538626 -183.8825388 106.03858376 C-183.88140232 107.68622449 -183.88140232 107.68622449 -183.88024288 109.3671509 C-183.88451997 110.58900288 -183.88879705 111.81085487 -183.89320374 113.06973267 C-183.8940388 114.99920968 -183.8940388 114.99920968 -183.89489073 116.96766603 C-183.8965442 120.55480547 -183.90443123 124.14190905 -183.91325247 127.72903705 C-183.92165123 131.5914897 -183.9242767 135.45394643 -183.92750549 139.31640625 C-183.93381662 146.01550568 -183.94356539 152.71459302 -183.95540047 159.41368484 C-183.9723456 169.10717921 -183.98192104 178.80067054 -183.9892792 188.49417643 C-184.00123869 204.22968241 -184.01619194 219.96518364 -184.03442383 235.70068359 C-184.03551395 236.64331619 -184.03660407 237.58594878 -184.03772723 238.557146 C-184.05332895 251.92681449 -184.07191914 265.29647716 -184.0917251 278.66614 C-184.09311842 279.60695345 -184.09451173 280.5477669 -184.09594727 281.51708984 C-184.0973408 282.4567599 -184.09873433 283.39642996 -184.10017008 284.36457486 C-184.12320485 300.03225874 -184.13852121 315.69993885 -184.14750665 331.36763704 C-184.15336191 341.03581443 -184.16574137 350.70394041 -184.18647944 360.37209754 C-184.20018826 366.99961886 -184.20668048 373.62712221 -184.20748956 380.25465758 C-184.20819362 384.07926708 -184.21219055 387.90379987 -184.2249527 391.72838974 C-184.23871681 395.8750911 -184.23699084 400.02164258 -184.23377991 404.16836548 C-184.24028771 405.37683313 -184.24679551 406.58530078 -184.25350052 407.83038867 C-184.23613888 413.5777456 -184.14883937 418.62710024 -182 424 C-179.76787252 426.01926411 -179.76787252 426.01926411 -176.875 427.375 C-175.80378906 427.94863281 -174.73257813 428.52226563 -173.62890625 429.11328125 C-172.75516357 429.56501709 -172.75516357 429.56501709 -171.86376953 430.02587891 C-168.47294547 431.79813303 -165.14705305 433.68715613 -161.8125 435.5625 C-161.1230127 435.94688232 -160.43352539 436.33126465 -159.72314453 436.72729492 C-156.12430142 438.74640072 -152.64448144 440.83415715 -149.25 443.1875 C-145.07073036 446.07961816 -140.62884051 448.20859771 -136.0625 450.421875 C-131.99483686 452.51796672 -128.21660656 454.97327742 -124.390625 457.4765625 C-121.93150967 459.10164743 -121.93150967 459.10164743 -118.875 460.5625 C-116.33157064 461.83421468 -114.15264102 463.21113366 -111.8125 464.8125 C-106.73519896 468.2569002 -101.41232385 471.12189961 -96 474 C-94.12371965 475.01847815 -92.24870412 476.03929007 -90.375 477.0625 C-89.47910156 477.55105469 -88.58320313 478.03960938 -87.66015625 478.54296875 C-83.76340239 480.67731411 -79.87978203 482.83498583 -76 485 C-74.34010684 483.34010684 -74.87890524 481.33989171 -74.87284574 479.12267271 C-74.87604445 478.41732243 -74.87924316 477.71197214 -74.8825388 476.98524761 C-74.88170682 475.86592267 -74.88170682 475.86592267 -74.88085803 474.72398511 C-74.88020972 472.19150888 -74.88676595 469.65910014 -74.89320374 467.12663269 C-74.89419865 465.30545883 -74.89474929 463.48428468 -74.89489073 461.66311055 C-74.89654475 456.6335855 -74.90443296 451.604086 -74.91325247 446.57456911 C-74.9216488 441.16001102 -74.92427624 435.74545004 -74.92750549 430.33088684 C-74.93381694 420.94056424 -74.94356562 411.55025026 -74.95540047 402.15993309 C-74.97233802 388.57858722 -74.98191857 374.99724351 -74.9892792 361.41588942 C-75.00123824 339.37776161 -75.01619264 317.33963718 -75.03442383 295.30151367 C-75.03496823 294.64159912 -75.03551264 293.98168458 -75.03607354 293.30177262 C-75.04879826 277.90477298 -75.06280747 262.50777516 -75.07904053 247.11077881 C-75.08008631 246.11752427 -75.08008631 246.11752427 -75.08115322 245.10420399 C-75.08467078 241.76532314 -75.08819761 238.4264423 -75.0917251 235.08756147 C-75.09311842 233.76823405 -75.09451173 232.44890664 -75.09594727 231.08959961 C-75.09803756 229.11300805 -75.09803756 229.11300805 -75.10017008 227.09648534 C-75.12318243 205.14707601 -75.1385127 183.19766935 -75.14750665 161.24824983 C-75.15337013 147.69685874 -75.16577288 134.1455042 -75.18647944 120.59412751 C-75.20015915 111.31189893 -75.20667888 102.02968317 -75.20748956 92.74744459 C-75.20819555 87.38603882 -75.21223806 82.02468762 -75.2249527 76.66329575 C-75.23651996 71.76009752 -75.23896914 66.8569845 -75.23401051 61.95377592 C-75.23385857 60.17514297 -75.2371337 58.39650593 -75.24408758 56.61788657 C-75.2530218 54.2092429 -75.24974643 51.8009201 -75.24330235 49.39227581 C-75.24884222 48.69394903 -75.25438209 47.99562224 -75.26008984 47.27613404 C-75.23640169 43.6863081 -75.01837692 41.02300526 -73 38 C-68.00608606 33.82560014 -61.5568151 31.22023522 -55.734375 28.4296875 C-53.0443195 27.11734261 -53.0443195 27.11734261 -51.015625 25.5078125 C-48.49505216 23.6222677 -45.82686009 22.38423404 -43 21 C-40.5036864 19.63435724 -38.03462526 18.22135868 -35.5625 16.8125 C-28.89956832 13.03696822 -22.17699768 9.39494795 -15.40234375 5.82421875 C-13.64339099 4.88112927 -11.88625804 3.92978097 -10.18798828 2.88134766 C-6.6495356 0.70670346 -4.17557022 -0.73645664 0 0 Z " fill="#C1EA13" transform="translate(448,198)"/>
<path d="M0 0 C2.25390625 1.1015625 2.25390625 1.1015625 4.5625 2.625 C10.17565349 6.18084384 16.02503939 9.10491599 22 12 C22 12.66 22 13.32 22 14 C22.763125 14.20625 23.52625 14.4125 24.3125 14.625 C29.49898594 16.55894391 34.19033084 19.2785146 39 22 C39 22.66 39 23.32 39 24 C39.82371094 24.15855469 39.82371094 24.15855469 40.6640625 24.3203125 C43.49919757 25.14525147 45.8027679 26.42676848 48.375 27.875 C52.21220532 30.01191756 56.05103945 32.07888406 60 34 C60 34.66 60 35.32 60 36 C60.763125 36.20625 61.52625 36.4125 62.3125 36.625 C67.49898594 38.55894391 72.19033084 41.2785146 77 44 C77 44.66 77 45.32 77 46 C77.83917969 46.2475 78.67835938 46.495 79.54296875 46.75 C83.37684478 48.13626026 86.79653645 49.96861276 90.3125 52 C91.00400146 52.39445312 91.69550293 52.78890625 92.40795898 53.1953125 C102.91160711 59.20752554 113.32168947 65.37877889 123.6875 71.625 C129.47894004 75.11363695 135.32365609 78.49714407 141.203125 81.8359375 C146.47066674 84.83026738 151.70655955 87.87938657 156.94750977 90.91992188 C161.84826372 93.76082381 166.76185809 96.57752176 171.6875 99.375 C175.86768911 101.75538547 179.96962497 104.20933508 184.0234375 106.796875 C186.40755167 108.24807493 188.85178364 109.55799688 191.3125 110.875 C196.12578188 113.46522659 200.72212004 116.30003549 205.296875 119.2890625 C208.47279846 121.29925683 211.72773937 123.15332329 215 125 C216.57587891 125.90298828 216.57587891 125.90298828 218.18359375 126.82421875 C227.09700487 131.92829691 236.0421811 136.97431459 245 142 C245 142.66 245 143.32 245 144 C245.680625 144.0825 246.36125 144.165 247.0625 144.25 C249.98242395 144.9955125 252.22531975 146.07740666 254.77173167 147.67193222 C257.11394175 149.11453852 257.11394175 149.11453852 260.17941493 150.51511002 C269.26006316 155.21241044 269.26006316 155.21241044 271.19881213 159.89617157 C271.64295266 163.47129046 271.67181617 166.85074143 271.56330872 170.45214844 C271.56898389 171.81614654 271.58037804 173.18013071 271.59696788 174.54403973 C271.62595474 178.2789139 271.57418705 182.00891555 271.50885308 185.74316859 C271.45259261 189.77441607 271.47171885 193.80539957 271.48158264 197.83692932 C271.48839218 204.81704605 271.4476863 211.79558042 271.37449074 218.77529907 C271.26873492 228.86645142 271.23497214 238.95684039 271.21864685 249.04848683 C271.19021024 265.42191825 271.10374041 281.79450666 270.98071289 298.16748047 C270.86134402 314.07010689 270.76934557 329.97250416 270.71411133 345.87548828 C270.71069592 346.85610804 270.70728052 347.8367278 270.70376161 348.8470633 C270.68679585 353.76665623 270.67036771 358.68625078 270.65420687 363.60584641 C270.51948827 404.40448398 270.29056141 445.20219371 270 486 C264.70856366 486.14144081 262.14820037 485.99444029 257.9375 482.6875 C254.41317242 479.96285777 250.99914489 477.9605564 247 476 C244.24626593 474.43714667 241.53109549 472.81053297 238.8125 471.1875 C233.00596995 467.74126151 227.15720464 464.42020879 221.20703125 461.2265625 C218.36049596 459.64459421 215.70898388 457.80598926 213 456 C211.27716694 455.05091103 209.5471699 454.11477771 207.8125 453.1875 C203.94231355 451.11119727 200.23680723 448.90529072 196.5625 446.5 C192.76637592 444.03603929 188.94622257 441.91377154 184.875 439.9375 C179.59408004 437.36895916 174.73526934 434.47192493 170 431 C169.14593158 430.47440742 168.29186316 429.94881485 167.41191387 429.40729523 C164.65756655 426.65822228 164.40453773 425.11747245 164.33774453 421.29387331 C164.35580078 420.15399501 164.35580078 420.15399501 164.3742218 418.99108887 C164.36727726 418.17786651 164.36033271 417.36464416 164.35317773 416.5267787 C164.33589479 413.79797797 164.35423413 411.07057549 164.37231445 408.34179688 C164.36713731 406.3871238 164.35973861 404.43245552 164.35028076 402.47779846 C164.33469925 398.26685367 164.3349022 394.05630684 164.34728432 389.84535217 C164.36678839 383.19003069 164.35165129 376.5350646 164.33183289 369.87976074 C164.30466377 359.35545341 164.3011958 348.83129034 164.30760592 338.30695486 C164.31854019 319.45501751 164.29400076 300.60312358 164.25385827 281.75123072 C164.24076307 275.13223563 164.23954259 268.51337258 164.2479912 261.89437103 C164.25160976 257.78061614 164.24732327 253.66689513 164.2411499 249.55314445 C164.24006217 247.642327 164.24243902 245.73150404 164.2484951 243.82069588 C164.25635339 241.21666885 164.25207867 238.61293337 164.24482727 236.00891113 C164.2501726 235.24899227 164.25551794 234.4890734 164.26102525 233.70612669 C164.2377764 229.9991851 164.18428892 227.08171971 162 224 C159.33911165 221.9728598 159.33911165 221.9728598 156.125 220.125 C155.54709717 219.77767822 154.96919434 219.43035645 154.3737793 219.07250977 C150.60386621 216.84056095 146.75781237 214.84619198 142.8125 212.9375 C137.99976864 210.60692537 133.81593968 207.86668528 129.5 204.7265625 C125.21406611 201.76658941 120.60449877 199.42092203 116 197 C110.04354841 193.80508434 104.33177975 190.35206911 98.67578125 186.6484375 C96.02280624 184.95899537 96.02280624 184.95899537 93.1875 183.59765625 C88.48675181 181.24152143 84.03422644 178.48676437 79.54101562 175.75976562 C78.83009766 175.33501953 78.11917969 174.91027344 77.38671875 174.47265625 C76.75983154 174.09375244 76.13294434 173.71484863 75.48706055 173.32446289 C73.13987844 172.07449107 70.77661632 170.99046979 68.34455872 169.91722107 C67.53168805 169.55792228 66.71881739 169.19862349 65.88131428 168.82843685 C65.26048057 168.55505269 64.63964685 168.28166853 64 168 C64.00075944 168.94008762 64.00151888 169.88017523 64.00230134 170.84875035 C64.04709945 226.52144564 64.0813554 282.19413927 64.10213066 337.86684896 C64.10463218 344.54616106 64.10721849 351.22547312 64.10986328 357.90478516 C64.1101248 358.56946712 64.11038632 359.23414908 64.11065576 359.91897292 C64.1191828 381.4743246 64.13420867 403.02966582 64.15259444 424.58501116 C64.17198359 447.35800019 64.18398935 470.13098382 64.18817699 492.90398097 C64.19092615 506.55126885 64.19962035 520.19852668 64.21583293 533.84580532 C64.22637549 543.19439077 64.22960684 552.54296061 64.22700275 561.89155158 C64.2257172 567.29142828 64.22773753 572.69125234 64.23841095 578.09111977 C64.24810135 583.0295191 64.24866246 587.96783011 64.24179779 592.9062334 C64.24094862 594.69768076 64.24352126 596.4891335 64.24976636 598.28057018 C64.25773519 600.70651595 64.25350141 603.13213847 64.24609566 605.55807877 C64.2539767 606.61321727 64.2539767 606.61321727 64.26201695 607.6896717 C64.23695345 611.29680491 63.96947786 613.92986631 62 617 C61.34 617 60.68 617 60 617 C60 617.66 60 618.32 60 619 C58.86046875 619.55945313 57.7209375 620.11890625 56.546875 620.6953125 C52.03446337 622.95151832 47.64337536 625.39703929 43.25 627.875 C37.10358645 631.31883368 30.91526916 634.60462434 24.58984375 637.7109375 C18.53417222 640.72507265 12.71606634 644.15641913 6.875 647.5625 C5.86050781 648.15160156 4.84601563 648.74070312 3.80078125 649.34765625 C2.13668758 650.32940189 0.48331055 651.33034244 -1.14453125 652.37109375 C-5.41253785 655.05835717 -5.41253785 655.05835717 -8.359375 654.765625 C-11.28541821 653.91724561 -13.65677401 652.74120359 -16.3125 651.25 C-17.2715625 650.71246094 -18.230625 650.17492187 -19.21875 649.62109375 C-22.27285624 647.8409616 -25.26470389 645.98275014 -28.2421875 644.078125 C-30.15592885 642.86609332 -30.15592885 642.86609332 -32.9375 641.5625 C-35.53146826 640.23904681 -37.74157813 638.83920708 -40.125 637.1875 C-43.55560229 634.8526252 -47.01540673 632.93317379 -50.75 631.125 C-56.39572168 628.38484719 -61.66096186 625.20980932 -66.97265625 621.875 C-69.49176489 620.31477787 -72.02104572 618.84855544 -74.625 617.4375 C-77.86792428 615.672364 -80.96581088 613.76077733 -84.0625 611.75 C-89.15632887 608.46982925 -94.37824651 605.49366412 -99.66967773 602.55004883 C-105.42078356 599.34479104 -111.09779845 596.02459198 -116.76391602 592.671875 C-121.33978297 589.96744942 -125.939134 587.30981051 -130.5625 584.6875 C-134.15071843 582.64818224 -137.70756761 580.59398523 -141.1875 578.375 C-145.08552006 575.88990832 -149.13977058 573.72867201 -153.20703125 571.53515625 C-157.54807398 569.14910059 -161.76963406 566.57558557 -166 564 C-167.72825393 562.9568197 -169.45741545 561.91514146 -171.1875 560.875 C-172.32251953 560.19050781 -172.32251953 560.19050781 -173.48046875 559.4921875 C-175.53000374 558.27835437 -177.58856316 557.08694191 -179.6574707 555.90673828 C-180.76050537 555.27751465 -181.86354004 554.64829102 -183 554 C-183.00173625 554.69962652 -183.0034725 555.39925303 -183.00526136 556.12008035 C-183.10819514 597.54680299 -183.21628715 638.97350935 -183.33111694 680.40020081 C-183.34488722 685.36966502 -183.35861421 690.33912935 -183.37231445 695.30859375 C-183.37504276 696.29796262 -183.37777106 697.28733149 -183.38058204 698.30668123 C-183.42470782 714.34554248 -183.46532393 730.38441081 -183.50465261 746.42328446 C-183.5450579 762.86950545 -183.58921252 779.31571327 -183.63687855 795.76191485 C-183.66619345 805.91752386 -183.69255194 816.07313184 -183.71517897 826.22875799 C-183.73095561 833.18424939 -183.75036015 840.13972464 -183.77266841 847.09519814 C-183.78544781 851.11357386 -183.79657901 855.13193709 -183.80341911 859.15032768 C-183.80970785 862.82416077 -183.82051899 866.49795086 -183.8350333 870.1717604 C-183.84160546 872.14067742 -183.84324347 874.10960897 -183.84474558 876.07853639 C-183.85022002 877.23552242 -183.85569446 878.39250846 -183.8613348 879.58455467 C-183.86399284 880.58929467 -183.86665089 881.59403466 -183.86938947 882.62922132 C-184 885 -184 885 -185 887 C-191.87209778 886.70121314 -196.31513665 883.66187144 -202 880 C-208.0001186 876.31853922 -214.07826358 872.84580993 -220.2734375 869.50390625 C-223.76097612 867.58026389 -227.15881812 865.52433162 -230.5625 863.45703125 C-234.32237946 861.2095392 -238.15556058 859.09865534 -242 857 C-242 856.34 -242 855.68 -242 855 C-242.56074219 854.8865625 -243.12148437 854.773125 -243.69921875 854.65625 C-251.66351414 852.38460038 -259.01152946 846.82919062 -266.0703125 842.54467773 C-271.6041569 839.19920448 -277.22820355 836.02905684 -282.8972168 832.91870117 C-285.55358093 831.44823184 -287.84119298 830.15880702 -290 828 C-290.251233 825.98736153 -290.251233 825.98736153 -290.25299966 823.45373404 C-290.25851915 822.48844141 -290.26403864 821.52314878 -290.26972538 820.52860487 C-290.26561475 819.45848649 -290.26150411 818.38836812 -290.25726891 817.28582191 C-290.26077498 816.15181387 -290.26428105 815.01780582 -290.26789337 813.8494339 C-290.27563879 810.6782623 -290.27433437 807.50723766 -290.26933783 804.33606507 C-290.26608571 800.89496684 -290.27434158 797.45389377 -290.28115618 794.01280344 C-290.29148977 787.97403445 -290.29429418 781.93529756 -290.29224396 775.89652061 C-290.28920265 766.9167914 -290.29749855 757.93709787 -290.30799321 748.95737557 C-290.32736925 731.98900364 -290.33296277 715.02064377 -290.33410732 698.05226208 C-290.3350252 684.95213029 -290.33913553 671.85200326 -290.34550858 658.75187302 C-290.34730357 654.98571249 -290.34908319 651.21955196 -290.35085833 647.45339143 C-290.35130043 646.51720453 -290.35174252 645.58101762 -290.35219802 644.61646142 C-290.36451225 618.27110059 -290.37239855 591.92574141 -290.37151146 565.58037758 C-290.3714803 564.58641125 -290.37144914 563.59244492 -290.37141704 562.5683584 C-290.37125082 557.53012734 -290.37105274 552.49189627 -290.37084763 547.45366521 C-290.37080774 546.45299216 -290.37076785 545.45231912 -290.37072675 544.42132265 C-290.37064587 542.39771666 -290.37056228 540.37411068 -290.37047596 538.35050469 C-290.36925014 506.85832582 -290.38426709 475.36618999 -290.41162109 443.87402344 C-290.44231538 408.52138633 -290.4595552 373.16877751 -290.45769465 337.81612623 C-290.45754538 334.04933699 -290.45744797 330.28254775 -290.45738602 326.51575851 C-290.45736271 325.58822723 -290.4573394 324.66069595 -290.45731538 323.70505767 C-290.45725373 308.75236504 -290.47004751 293.79970965 -290.48725055 278.8470281 C-290.50417111 263.82968497 -290.50620902 248.81239657 -290.4930319 233.79504921 C-290.48561878 224.86424339 -290.48937077 215.93360339 -290.50891658 207.002815 C-290.5208587 201.04475466 -290.51839031 195.08681524 -290.50397559 189.1287606 C-290.49616335 185.7290132 -290.49480049 182.32958817 -290.51089029 178.92986269 C-290.52486293 175.27489311 -290.51454167 171.62079862 -290.49777794 167.96586037 C-290.5077143 166.90042433 -290.51765066 165.83498828 -290.52788812 164.7372663 C-290.45842123 157.64335263 -290.45842123 157.64335263 -288.16273654 154.42156732 C-285.32949307 152.55927561 -282.44180837 151.07340395 -279.375 149.625 C-275.0867333 147.56079293 -270.92809673 145.44436665 -266.875 142.9375 C-263.37192899 140.77383849 -259.82324634 138.87329937 -256.125 137.0625 C-250.91968343 134.50982875 -245.93839854 131.68639665 -240.953125 128.73046875 C-237.16284391 126.50944425 -233.30830279 124.41920236 -229.4453125 122.328125 C-226.26749804 120.60215548 -223.12644156 118.81680279 -220 117 C-219.17628906 116.52175781 -218.35257812 116.04351562 -217.50390625 115.55078125 C-216.55386719 114.99777344 -215.60382813 114.44476563 -214.625 113.875 C-213.6040625 113.28332031 -212.583125 112.69164062 -211.53125 112.08203125 C-208.88184613 110.53424583 -206.26663099 108.93688201 -203.65625 107.32421875 C-202.90649902 106.86740723 -202.15674805 106.4105957 -201.38427734 105.93994141 C-199.9040999 105.03750342 -198.43015261 104.12474771 -196.96337891 103.20068359 C-192.83772664 100.70360376 -189.98067608 99.32220157 -185 100 C-184 101 -184 101 -183.87810284 103.14234507 C-183.8795667 104.09810384 -183.88103057 105.0538626 -183.8825388 106.03858376 C-183.88140232 107.68622449 -183.88140232 107.68622449 -183.88024288 109.3671509 C-183.88451997 110.58900288 -183.88879705 111.81085487 -183.89320374 113.06973267 C-183.8940388 114.99920968 -183.8940388 114.99920968 -183.89489073 116.96766603 C-183.8965442 120.55480547 -183.90443123 124.14190905 -183.91325247 127.72903705 C-183.92165123 131.5914897 -183.9242767 135.45394643 -183.92750549 139.31640625 C-183.93381662 146.01550568 -183.94356539 152.71459302 -183.95540047 159.41368484 C-183.9723456 169.10717921 -183.98192104 178.80067054 -183.9892792 188.49417643 C-184.00123869 204.22968241 -184.01619194 219.96518364 -184.03442383 235.70068359 C-184.03551395 236.64331619 -184.03660407 237.58594878 -184.03772723 238.557146 C-184.05332895 251.92681449 -184.07191914 265.29647716 -184.0917251 278.66614 C-184.09311842 279.60695345 -184.09451173 280.5477669 -184.09594727 281.51708984 C-184.0973408 282.4567599 -184.09873433 283.39642996 -184.10017008 284.36457486 C-184.12320485 300.03225874 -184.13852121 315.69993885 -184.14750665 331.36763704 C-184.15336191 341.03581443 -184.16574137 350.70394041 -184.18647944 360.37209754 C-184.20018826 366.99961886 -184.20668048 373.62712221 -184.20748956 380.25465758 C-184.20819362 384.07926708 -184.21219055 387.90379987 -184.2249527 391.72838974 C-184.23871681 395.8750911 -184.23699084 400.02164258 -184.23377991 404.16836548 C-184.24028771 405.37683313 -184.24679551 406.58530078 -184.25350052 407.83038867 C-184.23613888 413.5777456 -184.14883937 418.62710024 -182 424 C-179.76787252 426.01926411 -179.76787252 426.01926411 -176.875 427.375 C-175.80378906 427.94863281 -174.73257813 428.52226563 -173.62890625 429.11328125 C-172.75516357 429.56501709 -172.75516357 429.56501709 -171.86376953 430.02587891 C-168.47294547 431.79813303 -165.14705305 433.68715613 -161.8125 435.5625 C-161.1230127 435.94688232 -160.43352539 436.33126465 -159.72314453 436.72729492 C-156.12430142 438.74640072 -152.64448144 440.83415715 -149.25 443.1875 C-145.07073036 446.07961816 -140.62884051 448.20859771 -136.0625 450.421875 C-131.99483686 452.51796672 -128.21660656 454.97327742 -124.390625 457.4765625 C-121.93150967 459.10164743 -121.93150967 459.10164743 -118.875 460.5625 C-116.33157064 461.83421468 -114.15264102 463.21113366 -111.8125 464.8125 C-106.73519896 468.2569002 -101.41232385 471.12189961 -96 474 C-94.12371965 475.01847815 -92.24870412 476.03929007 -90.375 477.0625 C-89.47910156 477.55105469 -88.58320313 478.03960938 -87.66015625 478.54296875 C-83.76340239 480.67731411 -79.87978203 482.83498583 -76 485 C-74.34010684 483.34010684 -74.87890524 481.33989171 -74.87284574 479.12267271 C-74.87604445 478.41732243 -74.87924316 477.71197214 -74.8825388 476.98524761 C-74.88170682 475.86592267 -74.88170682 475.86592267 -74.88085803 474.72398511 C-74.88020972 472.19150888 -74.88676595 469.65910014 -74.89320374 467.12663269 C-74.89419865 465.30545883 -74.89474929 463.48428468 -74.89489073 461.66311055 C-74.89654475 456.6335855 -74.90443296 451.604086 -74.91325247 446.57456911 C-74.9216488 441.16001102 -74.92427624 435.74545004 -74.92750549 430.33088684 C-74.93381694 420.94056424 -74.94356562 411.55025026 -74.95540047 402.15993309 C-74.97233802 388.57858722 -74.98191857 374.99724351 -74.9892792 361.41588942 C-75.00123824 339.37776161 -75.01619264 317.33963718 -75.03442383 295.30151367 C-75.03496823 294.64159912 -75.03551264 293.98168458 -75.03607354 293.30177262 C-75.04879826 277.90477298 -75.06280747 262.50777516 -75.07904053 247.11077881 C-75.08008631 246.11752427 -75.08008631 246.11752427 -75.08115322 245.10420399 C-75.08467078 241.76532314 -75.08819761 238.4264423 -75.0917251 235.08756147 C-75.09311842 233.76823405 -75.09451173 232.44890664 -75.09594727 231.08959961 C-75.09803756 229.11300805 -75.09803756 229.11300805 -75.10017008 227.09648534 C-75.12318243 205.14707601 -75.1385127 183.19766935 -75.14750665 161.24824983 C-75.15337013 147.69685874 -75.16577288 134.1455042 -75.18647944 120.59412751 C-75.20015915 111.31189893 -75.20667888 102.02968317 -75.20748956 92.74744459 C-75.20819555 87.38603882 -75.21223806 82.02468762 -75.2249527 76.66329575 C-75.23651996 71.76009752 -75.23896914 66.8569845 -75.23401051 61.95377592 C-75.23385857 60.17514297 -75.2371337 58.39650593 -75.24408758 56.61788657 C-75.2530218 54.2092429 -75.24974643 51.8009201 -75.24330235 49.39227581 C-75.24884222 48.69394903 -75.25438209 47.99562224 -75.26008984 47.27613404 C-75.23640169 43.6863081 -75.01837692 41.02300526 -73 38 C-68.00608606 33.82560014 -61.5568151 31.22023522 -55.734375 28.4296875 C-53.0443195 27.11734261 -53.0443195 27.11734261 -51.015625 25.5078125 C-48.49505216 23.6222677 -45.82686009 22.38423404 -43 21 C-40.5036864 19.63435724 -38.03462526 18.22135868 -35.5625 16.8125 C-28.89956832 13.03696822 -22.17699768 9.39494795 -15.40234375 5.82421875 C-13.64339099 4.88112927 -11.88625804 3.92978097 -10.18798828 2.88134766 C-6.6495356 0.70670346 -4.17557022 -0.73645664 0 0 Z M-8 9 C-11 10 -11 10 -13.74609375 10.31640625 C-17.66930647 11.1406106 -20.68787963 12.87177897 -24.0625 14.9375 C-27.94345255 17.27275563 -31.72213931 19.4554416 -36 21 C-36 21.66 -36 22.32 -36 23 C-37.3303125 23.3403125 -37.3303125 23.3403125 -38.6875 23.6875 C-42.46401385 25.18385454 -44.30538208 27.00598009 -47 30 C-49 32 -49 32 -52.0625 32.6875 C-56.46734415 33.82096408 -59.45136741 36.46366859 -62.88671875 39.34375 C-65 41 -65 41 -67.08570111 41.83866107 C-69.16781884 42.81572847 -69.16781884 42.81572847 -69.60491073 44.88369095 C-69.65017115 45.66050496 -69.69543157 46.43731898 -69.74206352 47.23767281 C-69.79733263 48.14022749 -69.85260173 49.04278218 -69.90954566 49.97268701 C-70.08115313 55.7160215 -70.13682249 61.45136072 -70.12698364 67.19723511 C-70.12813763 68.61782182 -70.12972702 70.03840823 -70.13171089 71.45899403 C-70.13586575 75.33942609 -70.13383099 79.21983339 -70.13072467 83.1002655 C-70.12845521 87.29379947 -70.13195779 91.48732929 -70.13470459 95.68086243 C-70.13914403 103.88514266 -70.13819414 112.08941372 -70.13529195 120.2936943 C-70.13303167 126.95961253 -70.1327281 133.62552819 -70.13381577 140.29144669 C-70.13404561 141.71560536 -70.13404561 141.71560536 -70.13428011 143.16853491 C-70.13459984 145.09734765 -70.13492405 147.02616038 -70.1352527 148.95497312 C-70.1381019 167.02604707 -70.13482876 185.09711594 -70.12945233 203.16818906 C-70.12498047 218.67951139 -70.12576446 234.19082624 -70.13037109 249.70214844 C-70.13571927 267.71878213 -70.13783182 285.73541138 -70.13475883 303.75204575 C-70.13444028 305.67184647 -70.13412591 307.59164719 -70.13381577 309.51144791 C-70.13366149 310.456025 -70.13350721 311.4006021 -70.13334826 312.37380274 C-70.13248416 319.03604653 -70.1339436 325.6982875 -70.13629532 332.36053085 C-70.13909601 340.47281245 -70.13834916 348.58508437 -70.13301457 356.69736485 C-70.13038189 360.83758009 -70.12936528 364.97777918 -70.13266373 369.11799431 C-70.13563526 372.90501482 -70.13401949 376.69200414 -70.12868617 380.4790218 C-70.12703345 382.50365368 -70.13031182 384.52828771 -70.13374341 386.55291736 C-70.13113566 387.74951925 -70.12852791 388.94612114 -70.12584114 390.17898369 C-70.12567879 391.21399667 -70.12551644 392.24900964 -70.12534916 393.31538665 C-70.01304397 395.72063619 -69.61270685 397.68887501 -69 400 C-69.08725487 402.22918301 -69.24142752 404.45605974 -69.43579102 406.6784668 C-70.04100269 414.41732917 -70.10504003 422.10019239 -70.04459953 429.85892677 C-70.02685832 432.2088292 -70.01680567 434.55866074 -70.00868225 436.90861511 C-69.98450179 443.57626999 -69.94824462 450.24382585 -69.90405273 456.91137695 C-69.87734327 461.01998472 -69.86026327 465.12854068 -69.84918404 469.23721886 C-69.8429756 470.79580324 -69.83297194 472.3543773 -69.81910515 473.91291237 C-69.79998296 476.075881 -69.7930084 478.23856986 -69.78881836 480.40161133 C-69.77763222 482.24569328 -69.77763222 482.24569328 -69.76622009 484.12702942 C-70 487 -70 487 -72 489 C-77.58253389 489.54730724 -81.14137035 488.52648742 -86 486 C-86.33 485.34 -86.66 484.68 -87 484 C-87.99 484 -88.98 484 -90 484 C-90.33 483.34 -90.66 482.68 -91 482 C-95.78345652 478.51118725 -100.72944508 475.24245889 -106.375 473.375 C-110.42562629 471.83855554 -111.97123542 470.02876458 -115 467 C-120.67158593 463.44886133 -120.67158593 463.44886133 -127 462 C-127 461.34 -127 460.68 -127 460 C-127.71027344 459.81824219 -128.42054688 459.63648438 -129.15234375 459.44921875 C-130.07144531 459.19785156 -130.99054688 458.94648437 -131.9375 458.6875 C-132.85402344 458.44386719 -133.77054688 458.20023438 -134.71484375 457.94921875 C-135.84599609 457.47935547 -135.84599609 457.47935547 -137 457 C-137.33 456.01 -137.66 455.02 -138 454 C-140.37625345 452.81608777 -140.37625345 452.81608777 -143 452 C-146 451 -146 451 -148 448 C-150.39942854 446.50410842 -150.39942854 446.50410842 -153.1875 445.125 C-156.51263693 443.37811402 -159.63761286 441.65244337 -162.625 439.375 C-165.78703934 437.00535715 -169.09825453 435.56449425 -172.7265625 434.03515625 C-176.37860753 432.37228352 -179.67227428 430.2285222 -183 428 C-183.804375 427.484375 -184.60875 426.96875 -185.4375 426.4375 C-187.44633282 424.58937381 -187.53637146 423.69866592 -188 421 C-188.1033677 418.38156216 -188.15476784 415.789099 -188.15821838 413.17047119 C-188.16562535 411.97684326 -188.16562535 411.97684326 -188.17318195 410.75910163 C-188.18856761 408.08452037 -188.19692404 405.40996323 -188.20532227 402.73535156 C-188.21490783 400.81485791 -188.2249183 398.89436635 -188.23532104 396.97387695 C-188.26249691 391.71937817 -188.28348721 386.46487051 -188.30332303 381.21033955 C-188.32541199 375.60552294 -188.35275447 370.00073161 -188.37937927 364.39593506 C-188.4238249 354.87562278 -188.46446654 345.35530015 -188.50268555 335.83496094 C-188.54102138 326.29067286 -188.58240669 316.74640615 -188.62768555 307.20214844 C-188.9472903 239.80111305 -189.06214739 172.40175687 -189 105 C-189.59167969 105.40992188 -190.18335938 105.81984375 -190.79296875 106.2421875 C-191.58316406 106.78101563 -192.37335938 107.31984375 -193.1875 107.875 C-193.96480469 108.40867187 -194.74210937 108.94234375 -195.54296875 109.4921875 C-197.9764571 110.98555237 -200.32696959 112.01267438 -203 113 C-204.8192691 113.75471862 -206.63168331 114.52613727 -208.4375 115.3125 C-209.34371094 115.70050781 -210.24992187 116.08851563 -211.18359375 116.48828125 C-213.93122059 117.96308234 -216.05936947 119.71198274 -218.40454102 121.74926758 C-221.11028777 123.87039086 -224.14564356 125.24384271 -227.25 126.6875 C-231.96016217 128.82680292 -231.96016217 128.82680292 -236 132 C-237.3303125 132.37125 -237.3303125 132.37125 -238.6875 132.75 C-242.40609437 134.15324316 -244.45107427 135.99511617 -247.35546875 138.62109375 C-249.43274841 140.3628508 -251.45226469 141.09009453 -254 142 C-255.55425562 142.7881509 -257.09493074 143.60336547 -258.625 144.4375 C-259.38039063 144.84871094 -260.13578125 145.25992188 -260.9140625 145.68359375 C-263.02146606 146.90452777 -263.02146606 146.90452777 -264.5546875 148.56640625 C-266.89145748 150.88422945 -270.00185813 151.71508206 -273 153 C-273.7115625 153.804375 -273.7115625 153.804375 -274.4375 154.625 C-277.13444958 156.99831563 -280.50354787 156.71340556 -284 157 C-284.74103887 164.08284918 -285.14510607 171.06631401 -285.12698364 178.18615723 C-285.12854363 179.14899045 -285.13010362 180.11182368 -285.13171089 181.10383368 C-285.13566635 184.29645205 -285.13255265 187.48902199 -285.12939453 190.68164062 C-285.13075092 192.98378527 -285.13253219 195.28592971 -285.13470459 197.58807373 C-285.13924856 203.81470336 -285.13750241 210.04131634 -285.1343255 216.26794624 C-285.13178865 222.7874773 -285.13414291 229.30700697 -285.13571167 235.82653809 C-285.13764469 247.46436434 -285.13454544 259.102183 -285.12945233 270.74000806 C-285.12497668 281.29412368 -285.12576837 291.84822832 -285.13037109 302.40234375 C-285.13571951 314.67203029 -285.13771691 326.94170901 -285.13475883 339.21139669 C-285.13319802 345.7019944 -285.13299719 352.19258454 -285.13629532 358.68318176 C-285.13917585 364.77678434 -285.13719497 370.87036606 -285.13140106 376.96396637 C-285.13007492 379.20416987 -285.13046513 381.44437512 -285.13266373 383.68457794 C-285.13538061 386.73297992 -285.13198754 389.78131429 -285.12698364 392.82971191 C-285.12921436 393.72395197 -285.13144509 394.61819203 -285.13374341 395.53953028 C-285.12285281 398.94026386 -285.082929 401.75121299 -284 405 C-283.90796257 406.51861755 -283.86998716 408.04110426 -283.875 409.5625 C-283.87242187 410.34753906 -283.86984375 411.13257813 -283.8671875 411.94140625 C-284 414 -284 414 -285 416 C-285.0972915 418.18211225 -285.12737916 420.36729784 -285.12863445 422.55157757 C-285.13038749 423.23557942 -285.13214053 423.91958128 -285.13394669 424.62431046 C-285.13863542 426.93915053 -285.13613384 429.25392857 -285.13371277 431.56877136 C-285.13557931 433.2360533 -285.13787938 434.90333479 -285.14057809 436.57061559 C-285.14672214 441.17022495 -285.14655945 445.76981622 -285.14538372 450.36942875 C-285.14518036 455.32322353 -285.1506923 460.27701239 -285.15544128 465.23080444 C-285.16376312 474.94382642 -285.16649683 484.65684234 -285.16705366 494.36986759 C-285.16752819 502.26354514 -285.16957975 510.15722068 -285.17275429 518.0508976 C-285.18156576 540.41532168 -285.186173 562.77974096 -285.18542381 585.14416679 C-285.18538386 586.35093013 -285.1853439 587.55769347 -285.18530273 588.80102539 C-285.18526185 590.0092572 -285.18522097 591.217489 -285.18517885 592.4623339 C-285.18477245 612.04136143 -285.19433928 631.62036972 -285.2084411 651.19939169 C-285.2227959 671.28772062 -285.22971175 691.37604017 -285.22884732 711.46437436 C-285.228515 722.74848162 -285.23127749 734.03256872 -285.24202538 745.31667137 C-285.25111869 754.9255506 -285.25331534 764.53440054 -285.24651595 774.1432822 C-285.24324456 779.04735408 -285.24321628 783.95136974 -285.2518692 788.85543633 C-285.25970805 793.34426651 -285.2583296 797.83299564 -285.24958507 802.32182328 C-285.24804428 803.94637302 -285.24988796 805.57093022 -285.25544515 807.19547119 C-285.26249846 809.40350877 -285.25721706 811.6111912 -285.24888897 813.81921673 C-285.24910634 815.04576841 -285.24932371 816.27232009 -285.24954766 817.53604001 C-284.97591534 821.33431806 -284.16528275 824.38830613 -283 828 C-282.01 828 -281.02 828 -280 828 C-280 828.66 -280 829.32 -280 830 C-276.77885843 832.31592022 -276.77885843 832.31592022 -273 833 C-273 833.66 -273 834.32 -273 835 C-271.71802734 835.63228516 -271.71802734 835.63228516 -270.41015625 836.27734375 C-269.30542969 836.82519531 -268.20070313 837.37304688 -267.0625 837.9375 C-265.40927734 838.75541016 -265.40927734 838.75541016 -263.72265625 839.58984375 C-261 841 -261 841 -260 842 C-257.66702567 842.04092937 -255.33294775 842.04241723 -253 842 C-252.9175 842.598125 -252.835 843.19625 -252.75 843.8125 C-251.75971603 846.70082825 -250.65063227 847.52742652 -248 849 C-245.33238236 849.25124826 -245.33238236 849.25124826 -243 849 C-242.62101562 849.92619141 -242.62101562 849.92619141 -242.234375 850.87109375 C-240.79768218 853.34893421 -239.82821435 853.90829939 -237.25 855.0625 C-236.54101562 855.39121094 -235.83203125 855.71992187 -235.1015625 856.05859375 C-234.40804687 856.36925781 -233.71453125 856.67992187 -233 857 C-227.21428571 859.78571429 -227.21428571 859.78571429 -225 862 C-224.36964844 862.15597656 -223.73929688 862.31195312 -223.08984375 862.47265625 C-220.73988245 863.06563714 -219.46439083 863.9572755 -217.5625 865.4375 C-214.80104333 867.50120102 -212.21929274 868.74805282 -209 870 C-208.55269531 870.46792969 -208.10539062 870.93585937 -207.64453125 871.41796875 C-205.71213533 873.27692445 -203.89460724 874.13098437 -201.4375 875.1875 C-200.65246094 875.53167969 -199.86742187 875.87585937 -199.05859375 876.23046875 C-197.05405588 877.11671644 -197.05405588 877.11671644 -195 877 C-195 877.66 -195 878.32 -195 879 C-193.34385343 879.38218767 -191.67542976 879.71395102 -190 880 C-188.31187974 878.31187974 -188.86917726 876.20321534 -188.86412811 873.88891602 C-188.8568415 872.21699991 -188.8568415 872.21699991 -188.84940767 870.51130772 C-188.84911169 869.27136523 -188.8488157 868.03142275 -188.84851074 866.75390625 C-188.84427833 865.44858161 -188.84004592 864.14325697 -188.83568525 862.79837704 C-188.82400015 859.15810754 -188.81855045 855.5178506 -188.81405044 851.8775661 C-188.80811837 847.95780171 -188.79644617 844.03805416 -188.78541565 840.11830139 C-188.76703386 833.31936078 -188.75220086 826.52041981 -188.73963928 819.72146606 C-188.72136835 809.88140604 -188.69670176 800.04136997 -188.67026538 790.20132887 C-188.62742758 774.22521008 -188.58832784 758.24908464 -188.55224609 742.27294922 C-188.55008329 741.31588817 -188.54792049 740.35882713 -188.54569215 739.37276423 C-188.53036918 732.58184303 -188.51517576 725.79092153 -188.5 719 C-188.48268646 711.25667295 -188.46529703 703.51334607 -188.44775391 695.77001953 C-188.44559504 694.8165453 -188.44343617 693.86307107 -188.44121188 692.88070369 C-188.40507991 676.97569469 -188.3651195 661.0706975 -188.32245111 645.16570473 C-188.29631439 635.35322737 -188.27365039 625.54075357 -188.25546753 615.72825819 C-188.24278155 608.99932807 -188.22664825 602.27041193 -188.20781839 595.54149622 C-188.19708155 591.65996315 -188.18795365 587.77844355 -188.18312263 583.89689827 C-188.1778512 579.68522825 -188.16501588 575.47361447 -188.15148926 571.26196289 C-188.15119327 570.03986618 -188.15089728 568.81776947 -188.15059233 567.55863953 C-188.1237698 561.2890132 -187.83057228 555.21597994 -187 549 C-183.7 549.33 -180.4 549.66 -177 550 C-177 550.66 -177 551.32 -177 552 C-176.41992188 552.31453125 -175.83984375 552.6290625 -175.2421875 552.953125 C-171.6282538 554.93303587 -168.14223991 556.90152621 -164.75 559.25 C-162.15334385 561.15635131 -162.15334385 561.15635131 -159.3125 561.4375 C-158.549375 561.623125 -157.78625 561.80875 -157 562 C-156.608125 562.804375 -156.21625 563.60875 -155.8125 564.4375 C-153.5747517 567.60121312 -152.52079364 567.59375769 -148.8125 568.3125 C-147.21139655 568.56217135 -145.60780009 568.7978938 -144 569 C-143.67 569.99 -143.34 570.98 -143 572 C-140.07920195 574.07530387 -138.62453269 575 -135 575 C-135 575.66 -135 576.32 -135 577 C-130.94780656 579.77255341 -126.44806825 581.86767986 -122.0625 584.0625 C-121.37220703 584.41376953 -120.68191406 584.76503906 -119.97070312 585.12695312 C-116.05172214 587.09201563 -112.21175422 588.72790522 -108 590 C-108 590.66 -108 591.32 -108 592 C-106.2984375 592.680625 -106.2984375 592.680625 -104.5625 593.375 C-101 595 -101 595 -100 597 C-99.34 597 -98.68 597 -98 597 C-97.67 597.99 -97.34 598.98 -97 600 C-94.93241371 600.95001288 -94.93241371 600.95001288 -92.5 601.5625 C-90.03125 602.25390625 -90.03125 602.25390625 -88 603 C-87.67 603.66 -87.34 604.32 -87 605 C-85.08772363 605.95018028 -85.08772363 605.95018028 -82.8125 606.8125 C-78.52876758 608.63106565 -75.57688764 611.00709402 -72 614 C-69.51493399 615.32951032 -66.98802729 616.53529407 -64.44140625 617.7421875 C-62.23298965 618.87996373 -60.44192866 620.0916568 -58.5 621.625 C-54.45960305 624.69647682 -49.86609282 625.79571546 -45 627 C-45 627.66 -45 628.32 -45 629 C-43.68 629.33 -42.36 629.66 -41 630 C-41 630.66 -41 631.32 -41 632 C-39.37750059 632.83819158 -37.75191503 633.6704116 -36.125 634.5 C-35.22007812 634.9640625 -34.31515625 635.428125 -33.3828125 635.90625 C-31.13403141 637.13905589 -31.13403141 637.13905589 -29 637 C-28.67 637.99 -28.34 638.98 -28 640 C-25.61016018 641.10712785 -25.61016018 641.10712785 -22.75 641.9375 C-18.37710451 643.40453591 -15.55860472 645.0514418 -12 648 C-5.55269971 649.92047243 -1.12957377 647.67489633 4.5625 644.6875 C8.30806961 642.56689275 10.99439854 640.08909039 14 637 C16.4375 635.875 16.4375 635.875 19 635 C23.73639061 632.90828315 23.73639061 632.90828315 27 629 C29.8203125 628.05078125 29.8203125 628.05078125 33.125 627.3125 C34.22070312 627.06113281 35.31640625 626.80976562 36.4453125 626.55078125 C37.28835938 626.36902344 38.13140625 626.18726563 39 626 C39.33 624.68 39.66 623.36 40 622 C41.65 621.67 43.3 621.34 45 621 C45 620.34 45 619.68 45 619 C48.96 618.01 52.92 617.02 57 616 C57 615.34 57 614.68 57 614 C57.99 614 58.98 614 60 614 C60.02310092 568.37034602 60.0406154 522.74069267 60.05106533 477.11103395 C60.05231541 471.67257406 60.05360979 466.23411417 60.05493164 460.7956543 C60.05519395 459.71336459 60.05545626 458.63107488 60.05572652 457.51598852 C60.06002833 440.19838416 60.06788415 422.88078326 60.0771528 405.56318093 C60.08664471 387.67356368 60.09208766 369.78394819 60.09408849 351.89432853 C60.09531444 341.89669248 60.09817907 331.89906358 60.10573006 321.90143013 C60.1443575 269.25978969 59.79222601 216.63590566 59 164 C59.66 164 60.32 164 61 164 C61 163.34 61 162.68 61 162 C75.21081678 166.13907285 75.21081678 166.13907285 77.375 168.5 C79.86824545 170.80145734 82.76385352 171.20622822 86 172 C86 172.66 86 173.32 86 174 C86.99 174.33 87.98 174.66 89 175 C89.598125 175.61875 90.19625 176.2375 90.8125 176.875 C93.3241251 179.31486439 95.87010047 180.46834704 99 182 C99.46277344 182.49371094 99.92554688 182.98742187 100.40234375 183.49609375 C102.34788403 185.32747029 103.94139973 185.78359192 106.5 186.5 C109.92011589 187.45763245 111.56253079 188.45419882 114 191 C114.99 191.33 115.98 191.66 117 192 C117.598125 192.61875 118.19625 193.2375 118.8125 193.875 C122.09568044 197.06437529 125.26928485 198.88712727 129.875 199.1875 C130.57625 199.125625 131.2775 199.06375 132 199 C132 199.66 132 200.32 132 201 C133.28913487 201.67154933 134.58140204 202.33708859 135.875 203 C136.95394531 203.556875 136.95394531 203.556875 138.0546875 204.125 C139.94848977 205.13673746 139.94848977 205.13673746 142 205 C142.33 205.99 142.66 206.98 143 208 C145.07014307 208.91289284 145.07014307 208.91289284 147.5 209.5 C149.96875 210.15625 149.96875 210.15625 152 211 C152.33 211.99 152.66 212.98 153 214 C153.99 214 154.98 214 156 214 C156 214.66 156 215.32 156 216 C157.3303125 216.6496875 157.3303125 216.6496875 158.6875 217.3125 C166.81818182 221.45454545 166.81818182 221.45454545 168 225 C168.09708274 227.65318203 168.1373537 230.2800861 168.13130188 232.93334961 C168.13447545 234.15908518 168.13447545 234.15908518 168.13771313 235.40958309 C168.14372118 238.15718332 168.14271242 240.90473773 168.1418457 243.65234375 C168.14487659 245.61833779 168.14839785 247.58433113 168.15237427 249.55032349 C168.16026782 253.78844277 168.16540984 258.02655362 168.16866493 262.26467896 C168.17456722 268.96155383 168.19109912 275.65837534 168.21000671 282.35522461 C168.21634411 284.64613339 168.22266974 286.9370422 168.22898388 289.22795105 C168.23214969 290.37524374 168.2353155 291.52253643 168.23857725 292.70459557 C168.28069456 308.29947359 168.31364665 323.89432669 168.32592773 339.48925781 C168.33429328 350.00395607 168.35672644 360.51852229 168.3952834 371.03315449 C168.41509221 376.60059671 168.42743262 382.16784131 168.42244911 387.73532104 C168.41782154 392.96878713 168.43150406 398.20187801 168.45946121 403.4352684 C168.4664045 405.35939172 168.4664661 407.28355358 168.45926094 409.20767593 C168.45043793 411.82778654 168.46595854 414.44664221 168.48774719 417.06665039 C168.47930466 417.83405517 168.47086212 418.60145994 168.46216375 419.39211941 C168.5274318 423.63009895 168.5274318 423.63009895 170.9070158 426.99583435 C172.91363262 428.14418921 172.91363262 428.14418921 175 428 C175 428.66 175 429.32 175 430 C176.39077301 430.82113177 177.78788893 431.63152495 179.1875 432.4375 C179.96480469 432.88996094 180.74210937 433.34242188 181.54296875 433.80859375 C184.04931977 435.02391499 186.25790365 435.57626575 189 436 C189.33 436.99 189.66 437.98 190 439 C192.12045266 440.14230196 192.12045266 440.14230196 194.6875 441 C204.85554207 444.82027867 204.85554207 444.82027867 207.39453125 447.4375 C209.21398254 449.20825552 211.01224993 450.24429411 213.25 451.4375 C214.04535156 451.86675781 214.84070313 452.29601562 215.66015625 452.73828125 C216.43230469 453.15464844 217.20445312 453.57101562 218 454 C219.2315858 454.70411875 220.46100589 455.41204908 221.6875 456.125 C223.8365394 457.3414374 226.02441918 458.49250922 228.25 459.5625 C230.76567649 460.87751271 232.04129252 462.04129252 234 464 C236.93981024 465.39640986 238.72236256 466 242 466 C242 466.66 242 467.32 242 468 C245.22791555 470.1519437 246.28400809 470.20086443 250 470 C250.20625 470.5775 250.4125 471.155 250.625 471.75 C253.20375814 475.96978605 257.24443994 477.91624842 261.875 479.25 C263.421875 479.62125 263.421875 479.62125 265 480 C266.23985519 477.52028962 265.92711169 476.41174282 265.5687542 473.68249512 C264.87741624 467.47078062 264.87350573 461.32455048 264.89993286 455.08007812 C264.90182627 453.17665193 264.90182627 453.17665193 264.90375793 451.23477268 C264.90732036 447.73812199 264.9171021 444.24151281 264.92791152 440.74487805 C264.93844941 436.96448181 264.94303663 433.18407795 264.94824219 429.40367126 C264.95792694 422.86186946 264.97095851 416.32008142 264.98596573 409.77828979 C265.00938244 399.44342719 265.02235052 389.10856357 265.03366089 378.77368164 C265.03766155 375.23530573 265.04173027 371.69692989 265.04582024 368.15855408 C265.04734908 366.83248692 265.04734908 366.83248692 265.04890881 365.47963053 C265.06063598 355.43189311 265.07452092 345.38415906 265.08935547 335.33642578 C265.0907079 334.41850545 265.09206033 333.50058512 265.09345375 332.55484903 C265.11567998 317.64824582 265.14555585 302.7416649 265.17732288 287.83507943 C265.20966557 272.52761136 265.2305639 257.22015504 265.24159515 241.91265678 C265.24883044 232.47032283 265.26557058 223.02809995 265.29439591 213.58580679 C265.31333502 207.1256673 265.3214826 200.66557235 265.32099093 194.20540529 C265.3210542 190.47447556 265.3261188 186.74372051 265.34415817 183.01283073 C265.36356154 178.97646702 265.3600023 174.94045843 265.35403442 170.90405273 C265.36816539 169.11956852 265.36816539 169.11956852 265.38258183 167.29903412 C265.37722538 166.22484978 265.37186894 165.15066544 265.36635017 164.04393005 C265.36887202 162.64519732 265.36887202 162.64519732 265.37144482 161.21820736 C265.24886803 160.48619893 265.12629124 159.7541905 265 159 C261.55549263 156.70366176 259.06187717 156.45983515 255 156 C254.67 155.01 254.34 154.02 254 153 C252.33927151 152.31867549 250.672233 151.65257873 249 151 C248.34 150.01 247.68 149.02 247 148 C243.44327821 146.7811879 243.44327821 146.7811879 240 146 C240.33 145.34 240.66 144.68 241 144 C239.3603125 143.5978125 239.3603125 143.5978125 237.6875 143.1875 C234.15904513 142.05121792 233.38365517 141.49716256 231 139 C229.68 139 228.36 139 227 139 C226.67 138.01 226.34 137.02 226 136 C225.01 136.33 224.02 136.66 223 137 C223 136.01 223 135.02 223 134 C222.44570313 133.81824219 221.89140625 133.63648438 221.3203125 133.44921875 C220.59585937 133.19785156 219.87140625 132.94648438 219.125 132.6875 C218.40570312 132.44386719 217.68640625 132.20023437 216.9453125 131.94921875 C215 131 215 131 213 128 C210.82102508 126.99194445 210.82102508 126.99194445 208.375 126.3125 C207.55773437 126.06113281 206.74046875 125.80976563 205.8984375 125.55078125 C205.27195312 125.36902344 204.64546875 125.18726563 204 125 C204 124.34 204 123.68 204 123 C203.01 123 202.02 123 201 123 C201 122.34 201 121.68 201 121 C199.68 120.67 198.36 120.34 197 120 C197 119.34 197 118.68 197 118 C196.31292969 117.74605469 195.62585938 117.49210937 194.91796875 117.23046875 C193.56638672 116.71419922 193.56638672 116.71419922 192.1875 116.1875 C191.29417969 115.85105469 190.40085937 115.51460938 189.48046875 115.16796875 C187 114 187 114 185.55078125 112.52734375 C183.33315595 110.3432342 180.87593538 109.52396438 178 108.375 C176.948125 107.94960938 175.89625 107.52421875 174.8125 107.0859375 C172.89218487 106.34448249 170.95285154 105.65095051 169 105 C169 104.34 169 103.68 169 103 C162.05216076 99.87716323 162.05216076 99.87716323 155 97 C155 96.34 155 95.68 155 95 C151.12963993 91.91715737 146.99213851 89.46801299 142 89 C141.67 88.01 141.34 87.02 141 86 C139.23144489 85.08902006 139.23144489 85.08902006 137.125 84.5 C133.91946878 83.50640361 132.28294119 82.44511734 130 80 C126.77208445 77.8480563 125.71599191 77.79913557 122 78 C122 77.34 122 76.68 122 76 C121.4225 75.855625 120.845 75.71125 120.25 75.5625 C117.125 74.78125 117.125 74.78125 114 74 C114.33 73.01 114.66 72.02 115 71 C112.17942116 69.09196137 110.20932991 68.03283606 106.8125 67.5 C105.884375 67.335 104.95625 67.17 104 67 C103.34 66.01 102.68 65.02 102 64 C101.01 64 100.02 64 99 64 C98.67 63.01 98.34 62.02 98 61 C95.82264176 59.53119422 95.82264176 59.53119422 93.1875 58.3125 C91.87845703 57.65701172 91.87845703 57.65701172 90.54296875 56.98828125 C87.83331944 55.75850735 87.83331944 55.75850735 84 56 C84 55.34 84 54.68 84 54 C82.02 53.67 80.04 53.34 78 53 C78 52.34 78 51.68 78 51 C73.05 49.515 73.05 49.515 68 48 C68 47.34 68 46.68 68 46 C66.35 45.67 64.7 45.34 63 45 C63 43.68 63 42.36 63 41 C62.36835938 40.6596875 61.73671875 40.319375 61.0859375 39.96875 C56.77131092 37.63114252 52.46777004 35.28228362 48.22265625 32.8203125 C47.59375488 32.45615234 46.96485352 32.09199219 46.31689453 31.71679688 C45.07482577 30.99524173 43.83486748 30.27004001 42.59716797 29.54101562 C39.50386578 27.6131305 39.50386578 27.6131305 36 27 C36 26.34 36 25.68 36 25 C34.39125 24.566875 34.39125 24.566875 32.75 24.125 C27.26086957 22.47826087 27.26086957 22.47826087 25 21 C24.67 20.01 24.34 19.02 24 18 C22.04290043 16.91844497 20.02717912 15.94368683 18 15 C16.24980104 13.97950782 14.49982019 12.95864152 12.75 11.9375 C6.28724852 8.40675975 -1.05193624 4.99959965 -8 9 Z " fill="#C0E22B" transform="translate(448,198)"/>
<path d="M0 0 C0.66 0.33 1.32 0.66 2 1 C-7.71428571 9 -7.71428571 9 -11 9 C-11 155.85 -11 302.7 -11 454 C-11.66 454.33 -12.32 454.66 -13 455 C-13.00173625 454.3828963 -13.0034725 453.7657926 -13.00526136 453.12998879 C-13.10819894 416.5882771 -13.21629179 380.04658407 -13.33111694 343.50490773 C-13.34488719 339.12127324 -13.35861418 334.73763862 -13.37231445 330.35400391 C-13.37504276 329.48126901 -13.37777106 328.60853412 -13.38058204 327.70935272 C-13.42470577 313.56195132 -13.46532259 299.4145419 -13.50465261 285.26712646 C-13.54506033 270.76000529 -13.58921532 256.25289906 -13.63687855 241.7457999 C-13.66619095 232.78786075 -13.69254985 223.82992277 -13.71517897 214.8719642 C-13.73095768 208.73643785 -13.75036287 202.60092979 -13.77266841 196.46542372 C-13.78544565 192.92096047 -13.79657744 189.37651135 -13.80341911 185.83203125 C-13.81086387 181.99664784 -13.82592129 178.16131662 -13.84178162 174.32595825 C-13.84275972 173.19562703 -13.84373783 172.06529581 -13.84474558 170.90071213 C-13.85022002 169.87957853 -13.85569446 168.85844492 -13.8613348 167.80636787 C-13.86399284 166.92010062 -13.86665089 166.03383337 -13.86938947 165.12070954 C-13.86454128 162.94476252 -13.86454128 162.94476252 -15 161 C-15.09826105 159.00722307 -15.13071093 157.01109541 -15.13371277 155.01589966 C-15.13797775 153.73997955 -15.14224274 152.46405945 -15.14663696 151.1494751 C-15.14628742 149.72741696 -15.14582587 148.30535885 -15.14526367 146.88330078 C-15.14825445 145.39197709 -15.15165679 143.90065417 -15.15544128 142.40933228 C-15.16429425 138.35145618 -15.16661995 134.29360116 -15.16725707 130.23571634 C-15.16820529 126.85097367 -15.17188262 123.46623594 -15.17542917 120.08149517 C-15.18357883 112.09680805 -15.18601295 104.11213221 -15.18530273 96.12744141 C-15.18470195 87.88523169 -15.19525267 79.64308743 -15.2110464 71.40089428 C-15.22411401 64.32993388 -15.22948695 57.25899489 -15.22884732 50.18802249 C-15.22859209 45.96251495 -15.23145741 41.73706552 -15.24202538 37.51156998 C-15.25169315 33.53729782 -15.25179465 29.5631395 -15.24450874 25.58886337 C-15.24346122 24.12956323 -15.24583573 22.67025606 -15.2518692 21.21096802 C-15.25956809 19.22001551 -15.25375447 17.22902436 -15.24723816 15.23806763 C-15.24778293 14.12345217 -15.24832769 13.00883671 -15.24888897 11.86044502 C-14.99849247 8.98267417 -14.60616932 7.3778025 -13 5 C-10.31625712 3.21083808 -8.95721111 2.60917406 -5.9375 1.9375 C-3.74728742 1.44398841 -2.01486148 1.00743074 0 0 Z " fill="#C1DF35" transform="translate(388,231)"/>
<path d="M0 0 C0.66 0.33 1.32 0.66 2 1 C1.67 1.33 1.34 1.66 1 2 C0.90081803 3.4621568 0.87131525 4.92909443 0.86938947 6.39460999 C0.86570876 7.35151314 0.86202805 8.30841629 0.85823581 9.2943165 C0.85925847 10.36018355 0.86028114 11.4260506 0.8613348 12.52421665 C0.85707147 14.21263273 0.85707147 14.21263273 0.85272202 15.93515822 C0.84431036 19.75817599 0.84310178 23.58116372 0.84178162 27.40419006 C0.83777584 30.15217217 0.83226366 32.90015078 0.82681805 35.64813036 C0.81573099 41.64916225 0.80837759 47.6501899 0.80341911 53.65122986 C0.79602928 62.57465419 0.78294997 71.49806372 0.76867336 80.42147936 C0.74482433 95.42972037 0.72563639 110.437964 0.70907402 125.44621468 C0.69265208 140.31351137 0.67417739 155.18080317 0.65294075 170.0480938 C0.65162314 170.97133201 0.65030554 171.89457023 0.648948 172.84578536 C0.64224623 177.53414635 0.63550759 182.2225073 0.62875474 186.91086822 C0.58094875 220.14768669 0.5377761 253.38450974 0.49731445 286.62133789 C0.4579877 318.91723971 0.41657081 351.21313774 0.37231445 383.5090332 C0.37095192 384.50394291 0.36958939 385.49885263 0.36818558 386.52391112 C0.3545006 396.5148959 0.34077302 406.50588062 0.32701423 416.4968653 C0.29898515 436.85097281 0.27124044 457.20508071 0.2436676 477.55918884 C0.2423994 478.49510718 0.2411312 479.43102551 0.23982458 480.395305 C0.15512042 542.93019718 0.07704619 605.46509798 0 668 C2.33214148 669.20628008 4.49642139 670.1654738 7 671 C7 671.66 7 672.32 7 673 C7.78375 673.309375 8.5675 673.61875 9.375 673.9375 C12 675 12 675 14 676 C14 676.66 14 677.32 14 678 C14.67546875 678.07347656 15.3509375 678.14695312 16.046875 678.22265625 C19.97438643 679.25648532 22.8889859 681.20960787 26.25 683.4375 C27.20519531 684.04948242 27.20519531 684.04948242 28.1796875 684.67382812 C32.86444357 687.72888713 32.86444357 687.72888713 34 690 C29.42255541 688.34357064 25.33536336 686.03317045 21.125 683.625 C20.44308594 683.23828125 19.76117188 682.8515625 19.05859375 682.453125 C16.37404262 680.92932264 13.69034344 679.40589321 11.02929688 677.84130859 C7.62757223 675.85103252 4.88334431 674.64722405 1 674 C0.01 673.34 -0.98 672.68 -2 672 C-2.37185548 669.98594352 -2.37185548 669.98594352 -2.36733413 667.45028204 C-2.37568116 666.00119008 -2.37568116 666.00119008 -2.38419682 664.52282354 C-2.37039751 662.91635967 -2.37039751 662.91635967 -2.35631943 661.27744198 C-2.35839218 660.14253514 -2.36046494 659.00762831 -2.36260051 657.83833036 C-2.36532123 654.66456716 -2.35445213 651.4911728 -2.33806073 648.31746099 C-2.32355117 644.8737131 -2.32637651 641.42997413 -2.32705998 637.98620182 C-2.32583702 631.94280459 -2.31338288 625.89950997 -2.29369926 619.85614586 C-2.26447377 610.86976646 -2.25235943 601.88342177 -2.24378778 592.89700186 C-2.22886166 577.78218242 -2.19977671 562.66742062 -2.16255951 547.55264091 C-2.12570952 532.58011982 -2.09460876 517.60760615 -2.07138824 502.63505745 C-2.0699408 501.70510136 -2.06849336 500.77514528 -2.06700206 499.81700871 C-2.06114554 496.04240101 -2.0553314 492.26779324 -2.04957308 488.49318539 C-1.99704478 454.06940204 -1.93000172 419.64566274 -1.85400391 385.22192383 C-1.78220328 352.69719683 -1.71952793 320.17246981 -1.66748047 287.64770508 C-1.6658749 286.64573968 -1.66426933 285.64377428 -1.6626151 284.61144629 C-1.65614302 280.57204992 -1.64967783 276.53265354 -1.64321304 272.49325716 C-1.6399913 270.48040463 -1.63676865 268.4675521 -1.63354509 266.45469957 C-1.63032992 264.4468981 -1.62711735 262.43909663 -1.62390739 260.43129516 C-1.57277165 228.49184764 -1.5136956 196.55241452 -1.45324342 164.61298345 C-1.4355637 155.25197395 -1.4183415 145.89096395 -1.40211773 136.52995181 C-1.3679445 116.83813815 -1.33151969 97.14633596 -1.28587118 77.45454507 C-1.26705657 69.3067627 -1.2497736 61.15898465 -1.23695564 53.01119041 C-1.22633559 46.26187056 -1.21245628 39.51256831 -1.19398476 32.76326516 C-1.18476913 29.36057945 -1.17716857 25.95791018 -1.17387435 22.55521315 C-1.16950442 18.90235216 -1.15910149 15.24955933 -1.14704514 11.59671688 C-1.14721026 10.5233998 -1.14737539 9.45008272 -1.14754552 8.34424087 C-1.14309613 7.38068309 -1.13864674 6.4171253 -1.13406253 5.4243688 C-1.13229945 4.58766827 -1.13053636 3.75096774 -1.12871985 2.88891264 C-1 1 -1 1 0 0 Z " fill="#BAD538" transform="translate(161,355)"/>
<path d="M0 0 C0.33 0 0.66 0 1 0 C1 50.82 1 101.64 1 154 C-4 155 -4 155 -6.8125 153.5625 C-7.534375 153.046875 -8.25625 152.53125 -9 152 C-8.34 151.67 -7.68 151.34 -7 151 C-5.68 151.66 -4.36 152.32 -3 153 C-3 133.53 -3 114.06 -3 94 C-2.01 93.505 -2.01 93.505 -1 93 C-0.67 62.31 -0.34 31.62 0 0 Z " fill="#C5D733" transform="translate(263,928)"/>
<path d="M0 0 C2.46242046 0.99578571 2.46242046 0.99578571 5 3 C5.50100973 5.88230808 5.65508096 8.18151683 5.60127258 11.06742859 C5.60554471 11.89895299 5.60981683 12.7304774 5.61421841 13.58719951 C5.62247855 16.3837886 5.59491434 19.17889007 5.56762695 21.9753418 C5.56621713 23.97575851 5.56700717 25.97617781 5.56983948 27.97659302 C5.57127761 33.4165498 5.54182336 38.85595849 5.50696969 44.29578757 C5.4757724 49.97725908 5.47278068 55.65874231 5.46684265 61.34028625 C5.45128472 72.10322037 5.41022977 82.86590139 5.3600952 93.62872392 C5.30426245 105.88003616 5.2767305 118.1313603 5.25161803 130.38276803 C5.19931571 155.58865249 5.11133547 180.79431208 5 206 C4.67 206 4.34 206 4 206 C3.99761165 204.97901624 3.99522329 203.95803247 3.99276257 202.90610981 C3.93399988 178.07731394 3.85813711 153.24861536 3.76428509 128.41992664 C3.71929615 116.41301665 3.67988862 104.40613653 3.65356445 92.39916992 C3.63060948 81.93539046 3.59723947 71.47170528 3.55129844 61.00800055 C3.52733251 55.46619905 3.50862581 49.9244911 3.50238609 44.38263893 C3.49635051 39.16812516 3.4764059 33.95385088 3.44572449 28.73942566 C3.43691976 26.82421212 3.4332267 24.90896732 3.43499184 22.99373436 C3.4366398 20.38090535 3.41998629 17.76881059 3.39872742 15.15608215 C3.40357499 14.39634765 3.40842257 13.63661315 3.41341704 12.85385638 C3.35281936 8.34805228 2.56801009 5.68249306 0 2 C0 1.34 0 0.68 0 0 Z " fill="#C0E41A" transform="translate(609,419)"/>
<path d="M0 0 C0.33 0 0.66 0 1 0 C1 31.02 1 62.04 1 94 C0.67 94 0.34 94 0 94 C-0.33 85.75 -0.66 77.5 -1 69 C-1.33 69 -1.66 69 -2 69 C-2.95198431 60.54815749 -3.15202806 52.18782603 -3.125 43.6875 C-3.12886719 42.45193359 -3.13273437 41.21636719 -3.13671875 39.94335938 C-3.13542969 38.74904297 -3.13414062 37.55472656 -3.1328125 36.32421875 C-3.13168457 35.25260498 -3.13055664 34.18099121 -3.12939453 33.0769043 C-2.99901093 29.97648076 -2.57511855 27.0466434 -2 24 C-1.67 24 -1.34 24 -1 24 C-0.67 16.08 -0.34 8.16 0 0 Z " fill="#BFEC37" transform="translate(263,834)"/>
<path d="M0 0 C0.33 0 0.66 0 1 0 C1.79967988 7.40122696 2.11697132 14.66874721 2.02734375 22.109375 C2.01470969 24.18359216 2.00234785 26.25781099 1.99023438 28.33203125 C1.96536464 31.55327765 1.9372482 34.77443372 1.90405273 37.99560547 C1.87378987 41.13770102 1.85607092 44.27968001 1.83984375 47.421875 C1.82638412 48.37930603 1.8129245 49.33673706 1.79905701 50.32318115 C1.77933166 55.60628114 2.07492216 60.05009109 4 65 C6.55113566 67.10072453 6.55113566 67.10072453 9.625 68.4375 C11.12933594 69.17806641 11.12933594 69.17806641 12.6640625 69.93359375 C13.82035156 70.46146484 13.82035156 70.46146484 15 71 C14.01 71.99 14.01 71.99 13 73 C11.98679687 72.47599609 11.98679687 72.47599609 10.953125 71.94140625 C10.06109375 71.48636719 9.1690625 71.03132812 8.25 70.5625 C7.36828125 70.11003906 6.4865625 69.65757812 5.578125 69.19140625 C3.11322109 67.93485631 3.11322109 67.93485631 0.734375 67.52734375 C0.16203125 67.35332031 -0.4103125 67.17929687 -1 67 C-2.31141265 63.06576205 -2.03119129 59.38427073 -1.9140625 55.29296875 C-1.89314041 54.42322922 -1.87221832 53.55348969 -1.85066223 52.65739441 C-1.78099363 49.83392394 -1.70327589 47.0107439 -1.625 44.1875 C-1.57539011 42.26579322 -1.52599223 40.34408096 -1.47680664 38.42236328 C-1.13998048 25.60701744 -0.7045063 12.80102931 0 0 Z " fill="#BDE322" transform="translate(262,557)"/>
<path d="M0 0 C3.88358698 1.33498302 7.06989833 3.24952772 10.5 5.4453125 C18.80313205 10.60882274 27.43589789 15.28747821 36 20 C36 20.66 36 21.32 36 22 C36.680625 22.0825 37.36125 22.165 38.0625 22.25 C41.05960136 23.01521737 43.37783882 24.22631823 46.01953125 25.8125 C48.29755321 27.17841455 50.61275018 28.46536588 52.9375 29.75 C53.70964844 30.17796875 54.48179687 30.6059375 55.27734375 31.046875 C56.13005859 31.51867187 56.13005859 31.51867187 57 32 C56.67 32.99 56.34 33.98 56 35 C55.34628418 34.61779297 54.69256836 34.23558594 54.01904297 33.84179688 C32.33716186 20.82018643 32.33716186 20.82018643 10 9 C10.99 9.99 11.98 10.98 13 12 C9.51669784 11.35494404 6.90567134 10.01782732 4 8 C4 7.34 4 6.68 4 6 C2.68 5.67 1.36 5.34 0 5 C0.99 4.67 1.98 4.34 3 4 C2.01 3.34 1.02 2.68 0 2 C0 1.34 0 0.68 0 0 Z " fill="#C4E627" transform="translate(657,320)"/>
<path d="M0 0 C2.25390625 1.1015625 2.25390625 1.1015625 4.5625 2.625 C10.17565349 6.18084384 16.02503939 9.10491599 22 12 C22 12.66 22 13.32 22 14 C23.32 14.66 24.64 15.32 26 16 C22.68674832 15.59839374 20.27065603 14.68523936 17.4375 13 C13.55559388 10.74143644 11.40527159 10 7 10 C5.37135814 9.64114671 3.74661334 9.26438436 2.125 8.875 C-1.99535179 8.01260079 -4.19912524 7.98777219 -8 10 C-9.32 10 -10.64 10 -12 10 C-7.20286396 5.04295943 -7.20286396 5.04295943 -2.5 4.875 C1 5 1 5 3 6 C1.26898998 3.81346103 0.43825959 3.05766574 -2.375 2.6875 C-5.20590057 3.02451197 -7.41563122 3.81857427 -10 5 C-9 2 -9 2 -7.25 0.8125 C-4.59778462 -0.14524444 -2.81191268 -0.22844195 0 0 Z " fill="#C1E425" transform="translate(448,198)"/>
<path d="M0 0 C0.66 0.33 1.32 0.66 2 1 C-6.69332876 6.21187719 -15.33502473 11.36747612 -24.484375 15.74609375 C-27.07984426 17.03979815 -29.52361711 18.4926365 -32 20 C-33.34374718 20.74819443 -34.69733684 21.47913502 -36.0625 22.1875 C-36.71347656 22.53167969 -37.36445313 22.87585938 -38.03515625 23.23046875 C-40 24 -40 24 -44 24 C-44.33 24.66 -44.66 25.32 -45 26 C-46.32 24.02 -47.64 22.04 -49 20 C-48.01 20.33 -47.02 20.66 -46 21 C-39.30546419 21.8033443 -35.47406634 19.40801661 -30 16 C-23.26517572 12 -23.26517572 12 -21 12 C-21 11.34 -21 10.68 -21 10 C-19.99582031 9.58234375 -18.99164063 9.1646875 -17.95703125 8.734375 C-13.45349745 6.80639528 -9.13575568 4.54928241 -4.81054688 2.25390625 C-3.23603837 1.44357289 -1.62024656 0.71450562 0 0 Z " fill="#BFDD2F" transform="translate(482,826)"/>
<path d="M0 0 C6.02770138 0.47587116 10.76678289 3.19722957 16 6 C15.67 5.34 15.34 4.68 15 4 C17.91517292 5.07401108 19.77810176 5.77810176 22 8 C21.01 8.495 21.01 8.495 20 9 C20.90093384 9.52956299 20.90093384 9.52956299 21.82006836 10.06982422 C24.52907442 11.66619811 27.23331237 13.27047862 29.9375 14.875 C30.88302734 15.43058594 31.82855469 15.98617187 32.80273438 16.55859375 C33.70185547 17.09355469 34.60097656 17.62851562 35.52734375 18.1796875 C36.35999756 18.67194824 37.19265137 19.16420898 38.05053711 19.67138672 C40 21 40 21 41 23 C36.61213175 22.42731867 33.70901925 20.80663604 30 18.4375 C28.84769088 17.71088259 27.69534609 16.98432172 26.54296875 16.2578125 C25.95692871 15.88430664 25.37088867 15.51080078 24.76708984 15.12597656 C16.71116313 9.99279972 8.65754808 5.06494357 0 1 C0 0.67 0 0.34 0 0 Z " fill="#BFE41D" transform="translate(309,777)"/>
<path d="M0 0 C1.98 0.99 3.96 1.98 6 3 C6 3.66 6 4.32 6 5 C7.175625 5.4640625 7.175625 5.4640625 8.375 5.9375 C11 7 11 7 13 8 C13 8.66 13 9.32 13 10 C13.67546875 10.07347656 14.3509375 10.14695312 15.046875 10.22265625 C18.97438643 11.25648532 21.8889859 13.20960787 25.25 15.4375 C25.88679688 15.84548828 26.52359375 16.25347656 27.1796875 16.67382812 C31.86444357 19.72888713 31.86444357 19.72888713 33 22 C28.42255541 20.34357064 24.33536336 18.03317045 20.125 15.625 C19.44308594 15.23828125 18.76117188 14.8515625 18.05859375 14.453125 C12.65962491 11.38856745 12.65962491 11.38856745 10.02929688 9.83911133 C6.61495422 7.83832441 3.86066686 6.75068522 0 6 C-1.8125 4.4375 -1.8125 4.4375 -3 3 C-2.01 2.67 -1.02 2.34 0 2 C0 1.34 0 0.68 0 0 Z " fill="#C1E139" transform="translate(162,1023)"/>
<path d="M0 0 C0.33 0 0.66 0 1 0 C1.33 1.98 1.66 3.96 2 6 C2.33 6 2.66 6 3 6 C3 15.57 3 25.14 3 35 C2.67 35 2.34 35 2 35 C2 30.05 2 25.1 2 20 C1.34 20 0.68 20 0 20 C0 26.6 0 33.2 0 40 C-0.33 40 -0.66 40 -1 40 C-1.12242557 26.62359426 -0.92273836 13.34675129 0 0 Z " fill="#BFD536" transform="translate(261,405)"/>
<path d="M0 0 C4.12968446 1.20868813 7.5968421 2.79560526 11.2578125 4.9921875 C12.91008779 5.94798801 14.64281509 6.76056254 16.375 7.5625 C19 9 19 9 20 12 C22.50447516 13.21869929 22.50447516 13.21869929 25 14 C24.34 14.66 23.68 15.32 23 16 C22.52167725 15.71801758 22.04335449 15.43603516 21.55053711 15.14550781 C19.34647263 13.84652737 17.141989 12.54825986 14.9375 11.25 C13.80924805 10.58484375 13.80924805 10.58484375 12.65820312 9.90625 C8.12422068 7.23689237 3.57416406 4.59992326 -1 2 C-0.67 1.34 -0.34 0.68 0 0 Z " fill="#BFDF31" transform="translate(660,649)"/>
<path d="M0 0 C6.15847032 2.9868581 12.23757982 5.96579571 17.9765625 9.70703125 C21.27606639 11.81540149 24.69355575 13.72719522 28.09375 15.66796875 C28.7228125 16.10753906 29.351875 16.54710937 30 17 C30 17.66 30 18.32 30 19 C24.63952582 17.49263127 20.28118896 14.98708721 15.5625 12.125 C14.10570138 11.25221576 12.64867261 10.37981555 11.19140625 9.5078125 C10.49289551 9.08790039 9.79438477 8.66798828 9.07470703 8.23535156 C6.07319187 6.44814672 3.03937534 4.72191225 0 3 C0 2.01 0 1.02 0 0 Z " fill="#C3E82F" transform="translate(625,301)"/>
<path d="M0 0 C23.38461538 8.76923077 23.38461538 8.76923077 27 16 C20.48180123 14.10463724 14.82185199 11.4821006 9 8 C9 7.34 9 6.68 9 6 C8.2575 5.7525 7.515 5.505 6.75 5.25 C3.79875938 3.90852699 2.15185026 2.39094474 0 0 Z " fill="#C0DF35" transform="translate(312,652)"/>
<path d="M0 0 C4.61673043 1.13062786 8.17466678 2.58687233 12.22265625 5.046875 C15.03618876 6.55567045 17.90745442 7.2426419 21 8 C20.67 8.99 20.34 9.98 20 11 C12.63219407 9.91649913 6.39802501 5.59711184 0 2 C0 1.34 0 0.68 0 0 Z " fill="#C0DE32" transform="translate(457,207)"/>
<path d="M0 0 C4.12751449 0.60698743 7.3321148 2.03810791 11 4 C11 4.66 11 5.32 11 6 C12.11375 6.309375 13.2275 6.61875 14.375 6.9375 C18 8 18 8 20 9 C20 9.66 20 10.32 20 11 C21.32 11.33 22.64 11.66 24 12 C23.67 12.66 23.34 13.32 23 14 C16.07 10.04 16.07 10.04 9 6 C9 5.34 9 4.68 9 4 C8.071875 3.896875 7.14375 3.79375 6.1875 3.6875 C2.96745642 2.9929808 1.97420135 2.52259061 0 0 Z " fill="#C1E525" transform="translate(514,361)"/>
<path d="M0 0 C6.34841876 2.28645263 11.77296842 4.68201739 17 9 C17 9.66 17 10.32 17 11 C16.34 11 15.68 11 15 11 C15 10.34 15 9.68 15 9 C13.906875 8.87625 12.81375 8.7525 11.6875 8.625 C8 8 8 8 5 6 C5 5.34 5 4.68 5 4 C3.35 3.67 1.7 3.34 0 3 C0 2.01 0 1.02 0 0 Z " fill="#C1E525" transform="translate(511,240)"/>
<path d="M0 0 C13.98244782 4.38116698 13.98244782 4.38116698 16.375 8.1875 C16.58125 8.785625 16.7875 9.38375 17 10 C12.90204273 9.35081865 9.69816108 7.16741553 6.25 5 C5.64800781 4.63132812 5.04601562 4.26265625 4.42578125 3.8828125 C2.93030434 2.95364998 1.46232105 1.98051585 0 1 C0 0.67 0 0.34 0 0 Z " fill="#C1DF39" transform="translate(233,1067)"/>
<path d="M0 0 C3.92626592 0.71562482 7.12689186 2.50355163 10.625 4.375 C11.77226562 4.98085938 12.91953125 5.58671875 14.1015625 6.2109375 C17 8 17 8 19 11 C14.06286137 10.471358 10.7194424 8.18242512 6.6875 5.5 C6.04232422 5.08363281 5.39714844 4.66726563 4.73242188 4.23828125 C3.13269764 3.19211239 1.56322136 2.09996632 0 1 C0 0.67 0 0.34 0 0 Z " fill="#BFDE33" transform="translate(328,785)"/>
<path d="M0 0 C1.32 0 2.64 0 4 0 C4 0.66 4 1.32 4 2 C5.65 2.33 7.3 2.66 9 3 C9 3.66 9 4.32 9 5 C9.7425 5.28875 10.485 5.5775 11.25 5.875 C13.56739797 6.82302644 15.77917115 7.84845911 18 9 C18 9.66 18 10.32 18 11 C14.45756548 9.63408831 11.07372071 8.09068516 7.6875 6.375 C6.80449219 5.92898438 5.92148438 5.48296875 5.01171875 5.0234375 C4.34785156 4.68570312 3.68398437 4.34796875 3 4 C3 3.34 3 2.68 3 2 C2.01 1.67 1.02 1.34 0 1 C0 0.67 0 0.34 0 0 Z " fill="#C1E624" transform="translate(172,1029)"/>
<path d="M0 0 C5.96652354 1.57013777 10.82909025 4.75029782 16 8 C15.67 8.66 15.34 9.32 15 10 C10.86809679 8.57965827 7.41838985 6.47227033 3.76953125 4.12109375 C1.9974569 2.95668375 1.9974569 2.95668375 0 2 C0 1.34 0 0.68 0 0 Z " fill="#C0DF32" transform="translate(263,624)"/>
<path d="M0 0 C2.95784711 0.96301999 5.87010092 1.94685947 8.75 3.125 C10.90830973 4.12081542 10.90830973 4.12081542 13 4 C13.33 5.32 13.66 6.64 14 8 C9.77177848 8.34546748 7.65144061 7.52620593 4.1875 5.125 C3.39730469 4.59132813 2.60710938 4.05765625 1.79296875 3.5078125 C1.20128906 3.01023437 0.60960937 2.51265625 0 2 C0 1.34 0 0.68 0 0 Z " fill="#C1E039" transform="translate(558,265)"/>
<path d="M0 0 C3.73487777 0.4979837 5.81237635 0.87491756 9 3 C12.12521833 3.16699232 12.12521833 3.16699232 15 3 C15.33 3.66 15.66 4.32 16 5 C15.34 5 14.68 5 14 5 C14 5.66 14 6.32 14 7 C10.2397015 6.41892368 7.46964968 5.34800504 4.1875 3.4375 C3.39730469 2.98246094 2.60710938 2.52742188 1.79296875 2.05859375 C1.20128906 1.70925781 0.60960937 1.35992187 0 1 C0 0.67 0 0.34 0 0 Z " fill="#B8E41F" transform="translate(594,412)"/>
<path d="M0 0 C-0.72445313 0.38671875 -1.44890625 0.7734375 -2.1953125 1.171875 C-8.51300573 4.5347157 -8.51300573 4.5347157 -14.5 8.4375 C-15.7375 9.2109375 -15.7375 9.2109375 -17 10 C-17.99 9.67 -18.98 9.34 -20 9 C-4.28739003 -2.14369501 -4.28739003 -2.14369501 0 0 Z " fill="#C2E722" transform="translate(436,209)"/>
<path d="M0 0 C1.89957501 0.90888756 3.79450786 1.82748031 5.6875 2.75 C7.27111328 3.51570312 7.27111328 3.51570312 8.88671875 4.296875 C11.90003083 5.94531172 14.39287648 7.77499662 17 10 C12.40191871 9.46105575 9.13215631 8.23428472 5.125 5.9375 C4.15820312 5.38964844 3.19140625 4.84179688 2.1953125 4.27734375 C1.47085937 3.85582031 0.74640625 3.43429687 0 3 C0 2.01 0 1.02 0 0 Z " fill="#C7E71C" transform="translate(319,653)"/>
<path d="M0 0 C6.06426294 0.31917173 11.31055493 3.27439344 16 7 C16 7.99 16 8.98 16 10 C15.34773437 9.60167969 14.69546875 9.20335937 14.0234375 8.79296875 C9.42446348 6.00509512 4.86143779 3.30278632 0 1 C0 0.67 0 0.34 0 0 Z " fill="#C7E51E" transform="translate(696,674)"/>
<path d="M0 0 C4.35453922 0.25614937 6.49609768 0.57277847 9.875 3.4375 C12 6 12 6 13 8 C10.0280615 6.87548273 7.66559313 5.77706209 5 4 C3.0103005 3.60986284 1.00980131 3.26797351 -1 3 C-0.67 2.01 -0.34 1.02 0 0 Z " fill="#C0DE38" transform="translate(641,639)"/>
<path d="M0 0 C2 1.3125 2 1.3125 4 3 C4 3.99 4 4.98 4 6 C0.61608307 7.06351675 -0.5804634 7.21442982 -3.8125 5.5625 C-4.534375 5.046875 -5.25625 4.53125 -6 4 C-5.34 3.67 -4.68 3.34 -4 3 C-1.875 3.9375 -1.875 3.9375 0 5 C0 3.35 0 1.7 0 0 Z " fill="#BED73B" transform="translate(260,1076)"/>
<path d="M0 0 C0 0.66 0 1.32 0 2 C-3.67452438 4.8394052 -5.26886581 6 -10 6 C-10 5.01 -10 4.02 -10 3 C-8.70990357 2.49596232 -7.41786211 1.99690074 -6.125 1.5 C-5.04605469 1.08234375 -5.04605469 1.08234375 -3.9453125 0.65625 C-2 0 -2 0 0 0 Z " fill="#B9DE21" transform="translate(448,847)"/>
<path d="M0 0 C1.98498051 0.92512666 3.96286018 1.86550237 5.9375 2.8125 C7.03964844 3.33457031 8.14179688 3.85664062 9.27734375 4.39453125 C12 6 12 6 13 9 C10.03216871 7.54331217 7.13584687 5.98767914 4.25 4.375 C3.45078125 3.92898438 2.6515625 3.48296875 1.828125 3.0234375 C1.22484375 2.68570313 0.6215625 2.34796875 0 2 C0 1.34 0 0.68 0 0 Z " fill="#C6E526" transform="translate(272,754)"/>
<path d="M0 0 C4.5076467 0.53031138 7.41954788 2.25221116 11 5 C11 5.66 11 6.32 11 7 C9.66666667 6.33333333 8.33333333 5.66666667 7 5 C5.948125 4.505 4.89625 4.01 3.8125 3.5 C1 2 1 2 0 0 Z " fill="#BFE31F" transform="translate(298,770)"/>
<path d="M0 0 C6.4 0.36923077 6.4 0.36923077 9.4375 3.5625 C9.953125 4.366875 10.46875 5.17125 11 6 C6.48986609 5.46939601 3.61621781 3.69113883 0 1 C0 0.67 0 0.34 0 0 Z " fill="#C1DF3B" transform="translate(360,680)"/>
<path d="M0 0 C3.96 1.98 7.92 3.96 12 6 C12 6.33 12 6.66 12 7 C7.29761275 6.53898164 3.76737643 5.96823597 0 3 C0 2.01 0 1.02 0 0 Z " fill="#C9E621" transform="translate(625,301)"/>
<path d="M0 0 C3.3 1.65 6.6 3.3 10 5 C9.67 5.99 9.34 6.98 9 8 C7.6078125 7.0409375 7.6078125 7.0409375 6.1875 6.0625 C3.15780057 3.91377907 3.15780057 3.91377907 0 3 C0 2.01 0 1.02 0 0 Z " fill="#CBE81F" transform="translate(658,650)"/>
<path d="M0 0 C2.475 0.99 2.475 0.99 5 2 C2.45394698 4.00047023 0.0335364 5.82572785 -3 7 C-3.99 6.67 -4.98 6.34 -6 6 C-5.195625 5.566875 -4.39125 5.13375 -3.5625 4.6875 C-0.72153646 3.19525998 -0.72153646 3.19525998 0 0 Z " fill="#C0E137" transform="translate(245,305)"/>
<path d="M0 0 C3.465 1.485 3.465 1.485 7 3 C7 3.66 7 4.32 7 5 C8.32 5.66 9.64 6.32 11 7 C6.4923533 6.46968862 3.58045212 4.74778884 0 2 C0 1.34 0 0.68 0 0 Z " fill="#C3E61E" transform="translate(463,207)"/>
<path d="M0 0 C4.51478398 0.53115106 7.34666857 2.36620292 11 5 C10.01 5.495 10.01 5.495 9 6 C6.8359375 5.00390625 6.8359375 5.00390625 4.375 3.5625 C3.55773437 3.08941406 2.74046875 2.61632812 1.8984375 2.12890625 C1.27195312 1.75636719 0.64546875 1.38382813 0 1 C0 0.67 0 0.34 0 0 Z " fill="#C7E424" transform="translate(630,635)"/>
<path d="M0 0 C0.99 0.33 1.98 0.66 3 1 C2.01 1.33 1.02 1.66 0 2 C0 1.34 0 0.68 0 0 Z M0 2 C0 2.66 0 3.32 0 4 C-2.35438733 5.42944945 -3.48032433 6.08661261 -6.25 5.625 C-6.8275 5.41875 -7.405 5.2125 -8 5 C-2.25 2 -2.25 2 0 2 Z " fill="#C1E523" transform="translate(412,219)"/>
<path d="M0 0 C3.99455527 0.61454696 6.74466336 2.70646737 10 5 C9.01 5.33 8.02 5.66 7 6 C5.17578125 5.0390625 5.17578125 5.0390625 3.3125 3.625 C2.68988281 3.16351562 2.06726563 2.70203125 1.42578125 2.2265625 C0.95527344 1.82179688 0.48476562 1.41703125 0 1 C0 0.67 0 0.34 0 0 Z " fill="#C4E13F" transform="translate(216,1057)"/>
<path d="M0 0 C4.21912747 0.4794463 6.79663178 1.16625119 10 4 C5.66905042 4 3.72965139 3.03435531 0 1 C0 0.67 0 0.34 0 0 Z " fill="#BEE71D" transform="translate(367,811)"/>
<path d="M0 0 C4.31392226 0.4793247 6.16569547 1.7457985 9 5 C5.51694958 4.35499066 2.93797836 2.95865224 0 1 C0 0.67 0 0.34 0 0 Z " fill="#BCE621" transform="translate(642,642)"/>
</svg>
