<svg class=" " viewBox="0 0 1600 800"><path d="M153.93,193.939C156.476,199.831,161.445,205.213,168.833,210.101C181.016,218.162,206.092,227.785,225.126,230.213C243.631,232.573,266.481,229.804,281.407,225.169C292.411,221.752,302.144,216.216,308.168,210.101C312.83,205.368,317.033,199.845,316.95,193.939C316.847,186.649,310.856,176.049,302.876,169.697C291.585,160.708,268.151,155.328,249.246,153.116C228.987,150.745,202.142,151.863,184.925,157.424C171.721,161.69,156.668,169.831,152.764,177.498C150.189,182.554,151.726,188.838,153.93,193.939" stroke="#D0FE1D" stroke-width="2" fill="none" stroke-linecap="round" stroke-miterlimit="4"></path><path d="M308.416,581.818C309.673,589.627,315.791,598.146,324.718,606.061C340.105,619.702,374.578,637.363,402.01,645.506C429.781,653.75,470.116,657.061,490.452,654.847C501.55,653.64,509.343,651.107,515.575,646.465C520.955,642.456,525.77,635.953,526.923,630.303C527.978,625.135,526.313,619.679,523.488,614.141C519.517,606.357,511.806,597.639,501.613,589.899C486.425,578.367,459.747,564.767,436.73,557.576C413.208,550.227,383.823,544.673,361.809,546.757C343.734,548.468,321.414,555.071,313.568,563.398C308.764,568.496,307.399,575.5,308.416,581.818" stroke="#D0FE1D" stroke-width="2" fill="none" stroke-linecap="round" stroke-miterlimit="4"></path><path d="M43.301,161.616C43.035,168.291,45.786,177.419,50.904,185.859C58.581,198.52,75.676,214.486,91.38,226.263C108.394,239.022,129.424,250.37,150.213,258.586C171.293,266.917,194.835,272.924,217.085,275.687C238.564,278.354,260.251,278.296,281.407,275.478C302.725,272.638,325.345,267.081,344.495,258.586C362.681,250.518,382.777,239.05,393.97,226.632C402.801,216.834,409.209,204.251,410.566,193.939C411.681,185.463,409.37,177.275,405.447,169.697C400.916,160.945,392.165,152.292,382.983,145.455C372.692,137.793,359.754,132.07,345.729,127.154C329.2,121.36,312.97,117.085,289.447,114.705C251.15,110.831,174.901,112.742,136.683,117.155C113.304,119.855,96.488,122.972,80.808,129.293C67.982,134.464,54.024,142.52,48.241,149.373C44.844,153.399,43.492,156.805,43.301,161.616" stroke="#D0FE1D" stroke-width="2" fill="none" stroke-linecap="round" stroke-miterlimit="4"></path><path d="M248.839,589.899C255.677,601.867,269.287,612.241,282.915,622.222C299.164,634.124,320.789,645.228,341.34,654.545C362.606,664.186,386.067,672.51,408.595,678.788C430.417,684.87,452.463,689.531,474.372,691.959C495.828,694.336,519.857,695.275,538.693,693.444C553.76,691.979,567.532,690.213,578.894,684.585C589.217,679.473,601.245,671.806,604.817,662.626C608.315,653.636,605.461,640.972,600.725,630.303C594.671,616.663,580.425,602.397,566.027,589.899C548.936,575.063,524.883,560.661,502.783,549.495C480.91,538.443,457.65,529.839,434.171,523.104C410.66,516.36,384.512,510.859,361.809,509.075C341.965,507.515,322.474,507.701,305.528,511.023C290.748,513.921,276.173,517.896,265.327,525.814C254.947,533.391,243.668,545.636,241.206,556.753C238.914,567.104,243.021,579.714,248.839,589.899" stroke="#D0FE1D" stroke-width="2" fill="none" stroke-linecap="round" stroke-miterlimit="4"></path><path d="M1087.724,759.596C1092.253,765.671,1104.995,771.479,1117.942,775.758C1137.838,782.332,1170.458,786.18,1197.99,787.628C1227.031,789.156,1265.632,787.078,1287.947,783.838C1301.487,781.873,1310.797,780.167,1320.095,775.758C1328.5,771.772,1339.95,765.756,1341.833,759.596C1343.33,754.697,1339.715,747.719,1336.148,743.434C1332.271,738.778,1327.062,736.467,1318.593,733.374C1300.742,726.856,1260.382,719.016,1230.151,717.295C1198.797,715.511,1157.84,719.039,1133.668,723.685C1118.551,726.59,1106.101,730.031,1097.691,735.354C1091.91,739.013,1086.714,743.838,1085.427,748.363C1084.396,751.986,1085.103,756.082,1087.724,759.596" stroke="#D0FE1D" stroke-width="2" fill="none" stroke-linecap="round" stroke-miterlimit="4"></path><path d="M4,213.004C4,213.004,49.274,245.433,72.743,258.586C95.346,271.254,118.815,282.384,142.095,290.909C164.265,299.027,187.52,305.606,209.045,309.143C228.449,312.331,245.46,313.65,265.327,312.515C288.005,311.219,313.378,306.891,337.688,299.798C364.041,292.108,395.862,279.278,417.416,266.667C434.205,256.843,448.497,247.105,458.641,234.343C468.001,222.568,476.09,206.892,477.533,193.939C478.777,182.783,475.061,171.251,470.461,161.616C465.915,152.093,458.679,144.023,450.251,136.385C440.574,127.615,428.064,119.653,414.529,113.131C399.077,105.686,383.562,100.107,361.809,95.605C328.644,88.741,282.041,85.215,233.166,84.357C168.589,83.223,8.04,96.099,8.04,96.099" stroke="#D0FE1D" stroke-width="2" fill="none" stroke-linecap="round" stroke-miterlimit="4"></path><path d="M201.005,586.35C208.07,599.545,220.646,610.463,235.923,622.222C257.337,638.705,292.266,656.911,321.608,670.501C350.34,683.809,380.251,694.619,410.05,703.225C439.225,711.652,468.854,718.246,498.492,721.887C527.819,725.489,559.281,727.341,586.935,725.117C611.8,723.117,640.237,719.773,657.099,711.111C668.976,705.011,679.903,695.845,683.018,686.869C685.607,679.407,682.242,670.415,679.335,662.626C676.192,654.203,671.817,647.804,664.014,638.384C649.829,621.26,619.965,592.557,594.732,573.737C569.363,554.817,541.203,539.035,512.138,525.253C482.395,511.149,448.556,498.9,418.09,490.416C390.568,482.751,363.09,476.641,337.688,475.08C315.146,473.694,293.543,473.694,273.367,479.31C253.363,484.879,230.78,495.528,217.085,508.418C205.28,519.531,195.217,535.188,192.965,548.863C190.933,561.202,194.822,574.802,201.005,586.35" stroke="#D0FE1D" stroke-width="2" fill="none" stroke-linecap="round" stroke-miterlimit="4"></path><path d="M1048.118,796C1048.118,796,995.695,777.618,983.681,767.677C977.338,762.429,973.289,757.094,972.566,751.515C971.89,746.296,974.485,740.162,978.368,735.354C983.552,728.936,993.607,724.02,1004.338,719.192C1019.296,712.462,1037.69,706.797,1061.307,702.263C1098.235,695.173,1160.795,689.713,1206.03,689.127C1245.884,688.61,1283.596,690.652,1318.593,696.407C1350.122,701.592,1387.698,711.245,1407.035,720.068C1417.592,724.884,1424.147,728.678,1429.635,735.354C1435.026,741.91,1440.16,752.29,1439.886,759.596C1439.653,765.819,1436.044,771.377,1431.156,776.58C1424.312,783.864,1398.995,795.738,1398.995,795.738" stroke="#D0FE1D" stroke-width="2" fill="none" stroke-linecap="round" stroke-miterlimit="4"></path><path d="M4,254.544C4,254.544,126.043,317.696,168.844,334.021C194.726,343.892,213.081,349.291,233.166,352.482C250.224,355.191,263.138,356.597,281.407,354.198C306.694,350.878,339.342,339.116,369.849,327.164C404.667,313.522,450.83,293.088,478.311,274.747C497.835,261.718,513.509,249.168,523.75,234.343C532.386,221.84,538.392,207.535,539.19,193.939C539.974,180.594,535.058,165.657,528.971,153.535C522.884,141.415,512.923,130.655,502.67,121.212C492.128,111.504,480.278,103.494,466.332,96.311C450.066,87.933,432.399,81.05,410.05,75.738C379.316,68.434,343.803,65.25,297.487,62.598C223.468,58.358,8.04,63.118,8.04,63.118" stroke="#D0FE1D" stroke-width="2" fill="none" stroke-linecap="round" stroke-miterlimit="4"></path><path d="M930.489,796C930.489,796,853.673,762.218,804.02,754.275C737.196,743.585,621.566,758.728,562.814,754.619C528.724,752.235,509.679,748.779,482.412,743.201C453.457,737.276,424.87,729.913,393.97,719.43C358.337,707.342,315.815,690.13,281.407,672.954C250.289,657.421,217.267,639.892,195.69,622.222C179.749,609.169,166.027,597.14,159.322,581.818C152.977,567.317,151.19,548.908,154.845,533.333C158.798,516.485,172.041,498.953,184.774,484.848C197.952,470.251,216.239,456.526,233.166,447.664C248.586,439.592,265.136,434.227,281.407,432.243C297.305,430.305,310.452,431.962,329.648,435.467C359.589,440.934,405.792,456.049,442.211,469.603C478.124,482.97,514.648,499.165,546.734,516.05C575.944,531.423,597.3,544.926,627.514,565.657C669.332,594.349,735.719,653.773,771.859,675.84C791.463,687.809,802.378,694.27,820.101,698.807C839.561,703.79,855.744,703.404,884.422,702.476C942.836,700.584,1065.608,673.411,1149.749,670.024C1225.607,666.971,1312.322,671.81,1366.834,678.983C1400.404,683.4,1423.799,687.922,1447.236,696.998C1467.417,704.812,1489.645,714.759,1500.298,727.273C1508.305,736.679,1513.672,748.83,1512.396,759.596C1510.956,771.742,1487.803,796,1487.803,796" stroke="#D0FE1D" stroke-width="2" fill="none" stroke-linecap="round" stroke-miterlimit="4"></path><path d="M918.361,4C918.361,4,960.393,14.602,980.905,14.494C1000.8,14.389,1039.64,4,1039.64,4" stroke="#D0FE1D" stroke-width="2" fill="none" stroke-linecap="round" stroke-miterlimit="4"></path><path d="M4,287.209C4,287.209,100.458,333.859,130.651,355.556C150.014,369.47,168.348,381.862,173.904,395.96C178.015,406.39,175.535,415.883,171.684,428.283C165.461,448.321,138.028,478.726,128.643,501.132C121.426,518.363,115.465,534.144,115.796,549.495C116.1,563.614,120.727,577.322,128.418,589.899C137.396,604.581,151.062,616.503,169.593,630.303C198.14,651.56,247.517,676.71,289.447,696.435C332.884,716.868,381.514,736.192,426.131,750.268C467.129,763.203,503.906,771.835,546.734,779.274C594.401,787.553,699.497,795.824,699.497,795.824" stroke="#D0FE1D" stroke-width="2" fill="none" stroke-linecap="round" stroke-miterlimit="4"></path><path d="M1559.799,795.926C1559.799,795.926,1578.153,772.369,1579.802,759.596C1581.454,746.794,1577.435,730.364,1569.633,719.192C1561.017,706.854,1544.038,698.312,1527.638,690.578C1508.239,681.429,1489.168,676.219,1459.36,670.707C1405.753,660.795,1313.992,653.55,1230.151,651.762C1128.518,649.595,957.63,668.754,892.462,665.218C865.721,663.768,854.698,661.574,836.181,656.814C817.163,651.926,803.449,647.7,779.899,635.951C733.873,612.988,648.492,548.355,586.935,512.118C532.856,480.283,464.338,451.322,431.098,428.283C413.59,416.147,399.025,405.848,394.143,395.96C391.339,390.28,391.28,385.352,393.091,379.798C395.619,372.043,402.411,364.765,413.317,355.556C437.432,335.192,514.559,303.519,546.734,277.914C568.527,260.57,586.104,242.564,595.188,226.263C601.433,215.055,603.492,204.761,603.901,193.939C604.306,183.211,602.125,172.559,597.76,161.616C592.485,148.394,581.849,133.125,571.782,121.212C562.064,109.712,551.875,100.292,538.693,91.062C522.988,80.064,503.427,69.077,482.412,61.559C458.524,53.012,439.2,48.99,402.01,44.897C320.542,35.932,8.04,39.036,8.04,39.036" stroke="#D0FE1D" stroke-width="2" fill="none" stroke-linecap="round" stroke-miterlimit="4"></path><path d="M812.652,4C812.652,4,891.793,48.249,924.623,59.648C948.426,67.912,967.585,73.83,988.945,73.164C1010.467,72.492,1032.836,65.812,1053.266,55.397C1075.953,43.832,1117.588,4.083,1117.588,4.083" stroke="#D0FE1D" stroke-width="2" fill="none" stroke-linecap="round" stroke-miterlimit="4"></path><path d="M1596,673.871C1596,673.871,1544.82,659.638,1515.905,654.545C1482.563,648.673,1448.914,645.34,1407.035,642.312C1350.294,638.209,1278.66,636.17,1206.03,635.784C1120.105,635.326,985.233,644.981,924.623,641.924C895.54,640.458,880.842,638.386,860.302,633.999C840.723,629.817,823.57,624.742,804.02,616.698C780.994,607.224,761.027,596.086,731.658,578.801C682.386,549.803,580.077,481.325,539.527,452.525C520.029,438.678,507.57,431.037,497.329,420.202C489.723,412.155,483.073,403.566,480.841,395.96C479.183,390.311,479.229,385.371,481.267,379.798C484.091,372.075,490.092,364.864,500.66,355.556C524.278,334.752,603.874,296.897,633.002,274.747C649.092,262.512,658.075,253.826,667.555,242.424C676.09,232.158,684.187,221.355,688.206,210.101C691.909,199.734,693.427,188.377,692.024,177.778C690.572,166.815,685.418,156.357,679.078,145.455C671.357,132.176,659.566,118.441,646.902,105.051C632.204,89.508,613.538,71.253,594.975,58.736C577.346,46.85,559.16,37.564,538.693,30.982C516.567,23.865,499.458,21.306,466.332,18.993C395.243,14.028,212.819,29.334,128.643,27.347C78.281,26.158,8.04,18.658,8.04,18.658" stroke="#D0FE1D" stroke-width="2" fill="none" stroke-linecap="round" stroke-miterlimit="4"></path><path d="M4,317.59C4,317.59,60.953,347.038,80.171,363.636C94.914,376.369,108.282,390.437,113.504,404.04C117.609,414.731,116.894,423.402,114.906,436.364C111.666,457.49,90.714,496.076,85.617,517.172C82.479,530.16,80.822,538.786,81.508,549.495C82.204,560.337,84.868,571.535,89.919,581.818C95.506,593.194,103.928,603.565,114.933,614.141C129.299,627.947,148.728,640.608,171.664,654.545C203.277,673.757,243.687,694.564,289.447,714.858C349.691,741.576,503.971,796,503.971,796" stroke="#D0FE1D" stroke-width="2" fill="none" stroke-linecap="round" stroke-miterlimit="4"></path><path d="M706.357,4C706.357,4,782.779,51.723,816.478,80.808C850.174,109.891,884.401,160.726,908.543,178.504C921.009,187.685,929.087,190.59,940.704,194.217C953.085,198.082,966.891,200.286,980.905,200.324C996.25,200.366,1015.155,198.419,1029.146,193.263C1041.494,188.712,1049.199,185.234,1061.307,173.062C1089.019,145.202,1166.241,4,1166.241,4" stroke="#D0FE1D" stroke-width="2" fill="none" stroke-linecap="round" stroke-miterlimit="4"></path><path d="M1596,636.154C1596,636.154,1435.598,624.552,1342.714,622.073C1229.347,619.046,1046.891,627.073,964.824,622.889C925.014,620.86,903.284,619.091,876.382,613.656C852.992,608.93,833.72,602.956,812.06,594.131C788.205,584.412,766.451,572.832,739.698,556.544C703.132,534.281,646.455,494.825,615.247,468.687C594.25,451.101,574.555,436.038,566.211,420.202C560.452,409.273,557.948,397.402,560.368,387.879C562.724,378.613,568.641,372.686,579.838,363.636C607.363,341.391,702.562,295.423,747.739,279.338C776.116,269.235,789.53,267.556,820.101,263.25C871.409,256.024,974.156,261.189,1028.528,250.505C1065.017,243.335,1097.032,234.174,1117.588,220.301C1131.876,210.658,1139.38,201.798,1147.218,185.859C1159.263,161.368,1158.109,112.478,1168.915,80.808C1178.561,52.539,1206.395,4,1206.395,4" stroke="#D0FE1D" stroke-width="2" fill="none" stroke-linecap="round" stroke-miterlimit="4"></path><path d="M264.997,4C264.997,4,170.164,10.762,128.643,10.39C93.699,10.077,32.161,4.134,32.161,4.134" stroke="#D0FE1D" stroke-width="2" fill="none" stroke-linecap="round" stroke-miterlimit="4"></path><path d="M4,349.526C4,349.526,34.221,368.507,44.977,379.798C54.369,389.657,62.549,400.817,66.514,412.121C70.138,422.453,70.125,430.658,69.332,444.444C67.89,469.507,47.054,524.573,47.83,549.495C48.263,563.422,51.561,571.548,56.572,581.818C62.029,593.002,68.328,602.28,80.402,613.576C101.349,633.174,138.645,655.481,180.545,678.788C244.258,714.229,430.774,796,430.774,796" stroke="#D0FE1D" stroke-width="2" fill="none" stroke-linecap="round" stroke-miterlimit="4"></path><path d="M4,390.804C4,390.804,15.76,403.837,19.58,412.121C23.865,421.413,26.386,430.304,27.249,444.444C28.847,470.62,9.405,528.324,14.637,557.576C18.249,577.768,26.092,590.714,38.963,606.061C55.971,626.339,80.803,641.476,114.937,662.626C175.157,699.94,377.855,796,377.855,796" stroke="#D0FE1D" stroke-width="2" fill="none" stroke-linecap="round" stroke-miterlimit="4"></path><path d="M1596,606.128C1596,606.128,1141.448,610.483,1021.106,605.851C965.905,603.726,935.328,602.824,900.503,596.612C873.039,591.713,851.476,585.213,828.141,576.072C804.608,566.853,782.808,555.469,759.938,541.414C734.353,525.69,703.968,504.104,682.674,484.848C665.103,468.959,646.932,450.574,639.075,436.364C634.19,427.528,631.588,420.132,632.164,412.121C632.761,403.828,637.18,394.908,643.216,387.469C650.608,378.358,662.437,371.448,675.975,363.636C694.822,352.762,721.661,341.015,747.739,331.783C777.156,321.37,804.778,313.91,844.221,305.836C904.778,293.439,1026.425,283.631,1077.387,272.708C1102.804,267.26,1116.793,263.252,1133.668,256.452C1148.531,250.464,1162.611,245.287,1173.869,235.274C1185.696,224.755,1195.749,212.224,1202.258,193.939C1212.051,166.429,1203.615,114.344,1211.576,80.808C1218.376,52.159,1242.605,4,1242.605,4" stroke="#D0FE1D" stroke-width="2" fill="none" stroke-linecap="round" stroke-miterlimit="4"></path><path d="M4,607.217C4,607.217,45.003,641.714,78.263,662.626C136.896,699.492,333.459,796,333.459,796" stroke="#D0FE1D" stroke-width="2" fill="none" stroke-linecap="round" stroke-miterlimit="4"></path><path d="M1596,577.801C1596,577.801,1365.742,590.612,1254.271,591.224C1147.512,591.811,1008.287,590.677,940.704,582.357C907.858,578.314,891.41,573.883,868.342,566.426C845.905,559.172,824.901,550.297,804.02,538.573C781.83,526.114,756.594,508.87,739.345,492.929C725.293,479.943,712.052,464.959,705.769,452.525C701.437,443.953,699.07,436.245,699.773,428.283C700.498,420.076,703.274,412.128,710.561,404.04C723.93,389.203,759.951,371.393,787.94,359.461C817.63,346.803,844.717,340.687,884.422,331.37C946.427,316.82,1064.45,305.554,1125.628,288.061C1164.982,276.807,1199.088,267.063,1219.825,250.505C1234.246,238.99,1241.776,228.552,1247.62,210.101C1257.11,180.141,1242.303,117.837,1249.029,80.808C1254.377,51.37,1276.935,4,1276.935,4" stroke="#D0FE1D" stroke-width="2" fill="none" stroke-linecap="round" stroke-miterlimit="4"></path><path d="M4,641.419L293.027,796" stroke="#D0FE1D" stroke-width="2" fill="none" stroke-linecap="round" stroke-miterlimit="4"></path><path d="M1596,547.526C1596,547.526,1421.069,570.298,1326.633,574.202C1222.411,578.512,1067.832,574.798,996.985,568.905C963.002,566.078,945.544,563.145,921.98,557.576C900.191,552.426,879.413,545.945,860.302,537.53C842.273,529.592,825.046,520.666,810.082,509.091C795.309,497.665,778.298,481.311,770.955,468.687C766.034,460.227,763.52,452.466,763.868,444.444C764.222,436.303,766.743,428.246,773.304,420.202C784.434,406.556,812.123,390.905,836.181,379.579C864.152,366.412,892.424,359.458,932.663,349.06C997.471,332.314,1138.389,311.03,1189.95,297.07C1212.673,290.918,1223.681,287.438,1238.191,280.578C1251.33,274.365,1264.631,268.701,1273.743,258.586C1283.183,248.107,1290.343,235.066,1293.247,218.182C1297.528,193.286,1283.443,148.016,1282.624,121.212C1282.046,102.304,1281.408,89.991,1284.954,72.727C1289.309,51.524,1310.553,4.131,1310.553,4.131" stroke="#D0FE1D" stroke-width="2" fill="none" stroke-linecap="round" stroke-miterlimit="4"></path><path d="M4,667.64C4,667.64,115.725,717.747,160.804,741.465C196.41,760.199,254.168,796,254.168,796" stroke="#D0FE1D" stroke-width="2" fill="none" stroke-linecap="round" stroke-miterlimit="4"></path><path d="M1596,508.537C1596,508.537,1530.139,528.155,1495.477,535.393C1459.219,542.965,1429.042,548.554,1382.915,552.485C1310.388,558.666,1172.496,560.421,1101.508,557.93C1058.161,556.409,1028.499,553.343,996.985,548.551C970.518,544.526,947.589,540.836,924.623,532.954C902.069,525.212,876.574,514.426,860.302,501.966C847.529,492.186,835.874,479.658,831.535,468.687C828.313,460.539,828.775,451.483,830.556,444.444C832.123,438.249,834.399,434.119,840.155,428.283C852.044,416.228,882.954,397.756,908.543,386.373C937.201,373.625,965.104,367.777,1005.025,357.861C1068.493,342.095,1197.352,326.122,1254.271,307.435C1285.713,297.112,1310.486,289.696,1324.647,274.747C1335.252,263.552,1339.502,250.964,1340.818,234.343C1342.808,209.222,1322.535,164.285,1318.868,137.374C1316.306,118.57,1315.507,104.259,1316.528,88.889C1317.467,74.751,1319.594,61.996,1323.916,48.485C1328.642,33.708,1344.768,4,1344.768,4" stroke="#D0FE1D" stroke-width="2" fill="none" stroke-linecap="round" stroke-miterlimit="4"></path><path d="M4,691.119C4,691.119,88.292,724.787,125.161,743.434C157.917,760.002,215.098,796,215.098,796" stroke="#D0FE1D" stroke-width="2" fill="none" stroke-linecap="round" stroke-miterlimit="4"></path><path d="M1596,348.019C1596,348.019,1576.231,360.517,1570.902,371.717C1563.6,387.066,1571.983,419.104,1566.11,436.364C1561.573,449.698,1554.89,458.89,1544.841,468.687C1532.207,481.006,1513.51,491.86,1492.903,501.01C1466.861,512.573,1434.435,521.195,1398.995,527.92C1354.574,536.35,1298.481,540.992,1246.231,542.63C1191.412,544.349,1127.782,542.687,1077.387,537.004C1035.871,532.322,990.809,523.255,964.824,515.206C950.333,510.717,942.159,507.323,932.115,501.01C921.874,494.573,909.433,485.84,904.071,476.768C899.687,469.35,897.962,459.641,898.915,452.525C899.732,446.43,902.828,441.826,907.247,436.364C913.656,428.441,925.47,419.196,936.835,412.121C949.623,404.162,962.648,398.576,980.905,392.064C1008.592,382.188,1045.354,372.969,1088.577,363.636C1152.4,349.856,1273.625,337.737,1328.004,323.232C1357.181,315.45,1381.606,311.409,1393.572,298.99C1401.92,290.327,1404.746,280.391,1404.178,266.667C1403.137,241.538,1368.773,191.684,1359.784,161.616C1353.402,140.265,1349.813,123.937,1349.424,105.051C1349.037,86.227,1351.872,65.779,1357.396,48.485C1362.57,32.287,1380.46,4,1380.46,4" stroke="#D0FE1D" stroke-width="2" fill="none" stroke-linecap="round" stroke-miterlimit="4"></path><path d="M4,714.144C4,714.144,68.063,737.35,97.131,751.515C124.462,764.834,173.883,796,173.883,796" stroke="#D0FE1D" stroke-width="2" fill="none" stroke-linecap="round" stroke-miterlimit="4"></path><path d="M1596,282.296C1596,282.296,1554.455,279.827,1535.678,275.695C1518.482,271.911,1502.266,267.066,1487.437,259.482C1472.822,252.008,1459.705,242.298,1447.236,230.709C1433.689,218.118,1419.892,201.819,1409.895,185.859C1400.35,170.618,1392.368,153.909,1387.962,137.374C1383.747,121.554,1382.088,104.947,1383.296,88.889C1384.519,72.621,1389.11,54.934,1395.472,40.404C1401.406,26.85,1419.287,4,1419.287,4" stroke="#D0FE1D" stroke-width="2" fill="none" stroke-linecap="round" stroke-miterlimit="4"></path><path d="M1020.198,412.121C1040.501,401.414,1066.617,394.907,1093.467,388.259C1124.968,380.46,1162.395,374.607,1197.99,370.253C1234.708,365.762,1278.237,362.412,1310.553,362.041C1334.964,361.761,1355.16,361.874,1374.874,365.252C1392.304,368.239,1409.484,372.456,1423.116,379.625C1435.096,385.927,1446.37,394.187,1453.381,404.04C1459.971,413.3,1465.595,425.715,1464.995,436.364C1464.381,447.27,1457.879,459.371,1449.082,468.687C1437.965,480.46,1418.274,489.49,1398.995,497.014C1375.901,506.027,1346.791,511.491,1318.593,515.794C1288.07,520.452,1255.525,522.416,1222.111,522.891C1186.049,523.404,1143.977,522.091,1109.548,517.823C1079.831,514.14,1049.924,509.355,1027.308,501.01C1009.839,494.564,991.941,485.366,983.488,476.768C978.378,471.57,975.707,466.141,974.904,460.606C974.141,455.352,974.681,450.054,978.179,444.444C984.45,434.386,1003.357,421.002,1020.198,412.121" stroke="#D0FE1D" stroke-width="2" fill="none" stroke-linecap="round" stroke-miterlimit="4"></path><path d="M4,738.904L127.257,796" stroke="#D0FE1D" stroke-width="2" fill="none" stroke-linecap="round" stroke-miterlimit="4"></path><path d="M1077.313,436.364C1085.915,428.896,1100.06,422.545,1117.588,417.163C1146.571,408.263,1200.197,399.322,1238.191,398.813C1272.111,398.358,1313.254,402.881,1334.673,410.855C1346.843,415.386,1355.742,421.599,1360.78,428.283C1364.484,433.197,1366.409,439.151,1365.95,444.444C1365.475,449.933,1362.195,455.672,1357.488,460.606C1350.899,467.513,1340.576,473.633,1326.633,478.664C1302.632,487.325,1257.747,494.68,1222.111,495.862C1185.137,497.089,1135.021,492.12,1108.62,484.848C1093.403,480.657,1081.244,475.521,1074.359,468.687C1069.622,463.985,1066.225,457.811,1066.589,452.525C1066.968,447.028,1071.642,441.287,1077.313,436.364" stroke="#D0FE1D" stroke-width="2" fill="none" stroke-linecap="round" stroke-miterlimit="4"></path><path d="M1596,246.696C1596,246.696,1560.547,242.621,1543.719,237.869C1527.051,233.161,1510.275,226.963,1495.477,218.42C1480.818,209.956,1466.29,198.469,1455.276,186.964C1445.396,176.642,1437.425,165.739,1431.397,153.535C1425.283,141.158,1420.724,126.75,1419.016,113.131C1417.345,99.807,1417.89,85.923,1420.951,72.727C1424.143,58.963,1430.863,44.067,1438.413,32.323C1445.443,21.387,1464,4,1464,4" stroke="#D0FE1D" stroke-width="2" fill="none" stroke-linecap="round" stroke-miterlimit="4"></path><path d="M4,770.21L65.832,796" stroke="#D0FE1D" stroke-width="2" fill="none" stroke-linecap="round" stroke-miterlimit="4"></path><path d="M1596,215.753C1596,215.753,1531.99,199.478,1511.558,187.983C1497.752,180.216,1489.078,171.647,1480.707,161.616C1472.67,151.986,1465.855,141.113,1461.883,129.293C1457.739,116.963,1455.905,101.503,1456.967,88.889C1457.934,77.407,1461.577,66.549,1466.578,56.566C1471.669,46.405,1478.796,36.967,1487.437,28.543C1496.978,19.244,1522.233,4,1522.233,4" stroke="#D0FE1D" stroke-width="2" fill="none" stroke-linecap="round" stroke-miterlimit="4"></path><path d="M1596,182.927C1596,182.927,1571.175,177.374,1559.799,172.228C1548.383,167.064,1536.299,159.737,1527.638,151.963C1520.083,145.182,1513.968,138.049,1509.674,129.293C1505.068,119.899,1501.845,106.986,1501.706,96.97C1501.585,88.324,1503.359,80.719,1506.972,72.727C1511.253,63.258,1517.3,53.282,1527.638,44.695C1542.904,32.016,1596,11.613,1596,11.613" stroke="#D0FE1D" stroke-width="2" fill="none" stroke-linecap="round" stroke-miterlimit="4"></path><path d="M1596,135.757C1596,135.757,1580.822,127.541,1575.879,121.191C1570.816,114.686,1566.249,105.046,1566.246,96.97C1566.243,88.891,1570.884,79.466,1575.867,72.727C1580.822,66.025,1596,56.602,1596,56.602" stroke="#D0FE1D" stroke-width="2" fill="none" stroke-linecap="round" stroke-miterlimit="4"></path></svg>